<svg xmlns="http://www.w3.org/2000/svg" width="583.1885375976562" height="552.2244262695312" viewBox="-313.20013427734375 -267.991943359375 583.1885375976562 552.2244262695312"><title>Neo4j Graph Visualization</title><desc>Created using Neo4j (http://www.neo4j.com/)</desc><g class="layer relationships"><g class="relationship" transform="translate(240.98839386889478 -143.60477138143503) rotate(518.7400803394678)"><path class="outline" fill="#A5ABB6" stroke="none" d="M 25 0.5 L 55.425548157966276 0.5 L 55.425548157966276 -0.5 L 25 -0.5 Z M 102.31617315796628 0.5 L 132.74172131593255 0.5 L 132.74172131593255 3.5 L 139.74172131593255 0 L 132.74172131593255 -3.5 L 132.74172131593255 -0.5 L 102.31617315796628 -0.5 Z"/><text text-anchor="middle" pointer-events="none" font-size="8px" fill="#000000" x="78.87086065796628" y="3" transform="rotate(180 78.87086065796628 0)" font-family="sans-serif">DIRECTED</text></g><g class="relationship" transform="translate(15.464499392233812 221.23248697414928) rotate(283.27698256429636)"><path class="outline" fill="#A5ABB6" stroke="none" d="M 25 0.5 L 130.4592384452208 0.5 L 130.4592384452208 -0.5 L 25 -0.5 Z M 176.0217384452208 0.5 L 281.4809768904416 0.5 L 281.4809768904416 3.5 L 288.4809768904416 0 L 281.4809768904416 -3.5 L 281.4809768904416 -0.5 L 176.0217384452208 -0.5 Z"/><text text-anchor="middle" pointer-events="none" font-size="8px" fill="#000000" x="153.2404884452208" y="3" font-family="sans-serif">ACTED_IN</text></g><g class="relationship" transform="translate(15.464499392233812 221.23248697414928) rotate(247.2734174643133)"><path class="outline" fill="#A5ABB6" stroke="none" d="M 25 0.5 L 138.42332404021792 0.5 L 138.42332404021792 -0.5 L 25 -0.5 Z M 183.98582404021792 0.5 L 297.40914808043584 0.5 L 297.40914808043584 3.5 L 304.40914808043584 0 L 297.40914808043584 -3.5 L 297.40914808043584 -0.5 L 183.98582404021792 -0.5 Z"/><text text-anchor="middle" pointer-events="none" font-size="8px" fill="#000000" x="161.20457404021792" y="3" transform="rotate(180 161.20457404021792 0)" font-family="sans-serif">ACTED_IN</text></g><g class="relationship" transform="translate(15.464499392233812 221.23248697414928) rotate(250.67784226514271)"><path class="outline" fill="#A5ABB6" stroke="none" d="M 25 0.5 L 89.80861075438033 0.5 L 89.80861075438033 -0.5 L 25 -0.5 Z M 135.3711107543803 0.5 L 200.17972150876065 0.5 L 200.17972150876065 3.5 L 207.17972150876065 0 L 200.17972150876065 -3.5 L 200.17972150876065 -0.5 L 135.3711107543803 -0.5 Z"/><text text-anchor="middle" pointer-events="none" font-size="8px" fill="#000000" x="112.58986075438033" y="3" transform="rotate(180 112.58986075438033 0)" font-family="sans-serif">ACTED_IN</text></g><g class="relationship" transform="translate(15.464499392233812 221.23248697414928) rotate(264.8267130777168)"><path class="outline" fill="#A5ABB6" stroke="none" d="M 25 0.5 L 126.51125662360943 0.5 L 126.51125662360943 -0.5 L 25 -0.5 Z M 172.07375662360943 0.5 L 273.58501324721885 0.5 L 273.58501324721885 3.5 L 280.58501324721885 0 L 273.58501324721885 -3.5 L 273.58501324721885 -0.5 L 172.07375662360943 -0.5 Z"/><text text-anchor="middle" pointer-events="none" font-size="8px" fill="#000000" x="149.29250662360943" y="3" transform="rotate(180 149.29250662360943 0)" font-family="sans-serif">ACTED_IN</text></g><g class="relationship" transform="translate(15.464499392233812 221.23248697414928) rotate(275.7677769717259)"><path class="outline" fill="#A5ABB6" stroke="none" d="M 25 0.5 L 84.33328959329518 0.5 L 84.33328959329518 -0.5 L 25 -0.5 Z M 129.89578959329518 0.5 L 189.22907918659035 0.5 L 189.22907918659035 3.5 L 196.22907918659035 0 L 189.22907918659035 -3.5 L 189.22907918659035 -0.5 L 129.89578959329518 -0.5 Z"/><text text-anchor="middle" pointer-events="none" font-size="8px" fill="#000000" x="107.11453959329518" y="3" font-family="sans-serif">ACTED_IN</text></g><g class="relationship" transform="translate(89.45305315764841 -238.99194914896853) rotate(502.1493649537998)"><path class="outline" fill="#57C7E3" stroke="none" d="M 24.018736134675446,6.953439040707552 L 24.277555179777966,5.987513214418485 A 395.5499557330263 395.5499557330263 0 0 0 98.08136584977306,18.432268508262837 L 98.0091321135558,19.42965623996605 A 396.5499557330263 396.5499557330263 0 0 1 24.018736134675446,6.953439040707552 Z M 149.81759211732657,19.788413829404192 L 149.75917785004577,18.79012140061485 A 395.5499557330263 395.5499557330263 0 0 0 223.7282547868316,7.368647727924053 L 222.9920026166551,4.460395204171965 L 230.63688603728255,6.135434751470882 L 224.70992434706693,11.246317759593502 L 223.97367217689043,8.338065235841414 A 396.5499557330263 396.5499557330263 0 0 1 149.81759211732657,19.788413829404192"/><text text-anchor="middle" pointer-events="none" font-size="8px" fill="#000000" x="123.91095910313392" y="22.956055894102974" transform="rotate(180 123.91095910313392 19.956055894102974)" font-family="sans-serif">PRODUCED</text></g><g class="relationship" transform="translate(89.45305315764841 -238.99194914896853) rotate(502.1493649537998)"><path class="outline" fill="#A5ABB6" stroke="none" d="M 24.018736134675446,-6.953439040707552 L 24.277555179777966,-5.987513214418485 A 395.5499557330263 395.5499557330263 0 0 1 106.05957723625606,-18.929090398992855 L 106.00751342110907,-19.92773415887541 A 396.5499557330263 396.5499557330263 0 0 0 24.018736134675446,-6.953439040707552 Z M 141.81308009848408,-20.1756766529914 L 141.77485121239704,-19.17640764403103 A 395.5499557330263 395.5499557330263 0 0 1 223.7282547868316,-7.368647727924053 L 222.9920026166551,-4.460395204171965 L 230.63688603728255,-6.135434751470882 L 224.70992434706693,-11.246317759593502 L 223.97367217689043,-8.338065235841414 A 396.5499557330263 396.5499557330263 0 0 0 141.81308009848408,-20.1756766529914"/><text text-anchor="middle" pointer-events="none" font-size="8px" fill="#000000" x="123.91095910313379" y="-16.956055894102974" transform="rotate(180 123.91095910313379 -19.956055894102974)" font-family="sans-serif">WROTE</text></g><g class="relationship" transform="translate(89.45305315764841 -238.99194914896853) rotate(450.73679265732665)"><path class="outline" fill="#A5ABB6" stroke="none" d="M 25 0.5 L 50.62231380408163 0.5 L 50.62231380408163 -0.5 L 25 -0.5 Z M 97.51293880408163 0.5 L 123.13525260816326 0.5 L 123.13525260816326 3.5 L 130.13525260816326 0 L 123.13525260816326 -3.5 L 123.13525260816326 -0.5 L 97.51293880408163 -0.5 Z"/><text text-anchor="middle" pointer-events="none" font-size="8px" fill="#000000" x="74.06762630408163" y="3" transform="rotate(180 74.06762630408163 0)" font-family="sans-serif">DIRECTED</text></g><g class="relationship" transform="translate(89.45305315764841 -238.99194914896853) rotate(482.0242355300076)"><path class="outline" fill="#A5ABB6" stroke="none" d="M 25 0.5 L 115.25561849837578 0.5 L 115.25561849837578 -0.5 L 25 -0.5 Z M 162.14624349837578 0.5 L 252.40186199675156 0.5 L 252.40186199675156 3.5 L 259.40186199675156 0 L 252.40186199675156 -3.5 L 252.40186199675156 -0.5 L 162.14624349837578 -0.5 Z"/><text text-anchor="middle" pointer-events="none" font-size="8px" fill="#000000" x="138.70093099837578" y="3" transform="rotate(180 138.70093099837578 0)" font-family="sans-serif">DIRECTED</text></g><g class="relationship" transform="translate(89.45305315764841 -238.99194914896853) rotate(483.08013020383953)"><path class="outline" fill="#A5ABB6" stroke="none" d="M 25 0.5 L 66.07456551183598 0.5 L 66.07456551183598 -0.5 L 25 -0.5 Z M 112.96519051183598 0.5 L 154.03975602367197 0.5 L 154.03975602367197 3.5 L 161.03975602367197 0 L 154.03975602367197 -3.5 L 154.03975602367197 -0.5 L 112.96519051183598 -0.5 Z"/><text text-anchor="middle" pointer-events="none" font-size="8px" fill="#000000" x="89.51987801183598" y="3" transform="rotate(180 89.51987801183598 0)" font-family="sans-serif">DIRECTED</text></g><g class="relationship" transform="translate(89.45305315764841 -238.99194914896853) rotate(462.1637424033868)"><path class="outline" fill="#A5ABB6" stroke="none" d="M 25 0.5 L 95.8696304833836 0.5 L 95.8696304833836 -0.5 L 25 -0.5 Z M 142.76025548338362 0.5 L 213.6298859667672 0.5 L 213.6298859667672 3.5 L 220.6298859667672 0 L 213.6298859667672 -3.5 L 213.6298859667672 -0.5 L 142.76025548338362 -0.5 Z"/><text text-anchor="middle" pointer-events="none" font-size="8px" fill="#000000" x="119.3149429833836" y="3" transform="rotate(180 119.3149429833836 0)" font-family="sans-serif">DIRECTED</text></g><g class="relationship" transform="translate(-137.61288830551752 -226.724697462887) rotate(439.84487547295475)"><path class="outline" fill="#57C7E3" stroke="none" d="M 24.018736134675446,6.953439040707552 L 24.277555179777966,5.987513214418485 A 183.79113142860538 183.79113142860538 0 0 0 43.96023708566072,10.122208540305564 L 43.80851070467583,11.110631074100297 A 184.79113142860538 184.79113142860538 0 0 1 24.018736134675446,6.953439040707552 Z M 95.55600281306161,11.72267761050216 L 95.42769685857493,10.730942977627365 A 183.79113142860538 183.79113142860538 0 0 0 115.2026656969621,7.062935359465385 L 114.49496345291728,4.147603897388745 L 122.1230561491484,5.897518700373561 L 116.14626868902188,10.95004397556757 L 115.43856644497706,8.03471251349093 A 184.79113142860538 184.79113142860538 0 0 1 95.55600281306161,11.72267761050216"/><text text-anchor="middle" pointer-events="none" font-size="8px" fill="#000000" x="69.66663845707276" y="15.737155155333483" font-family="sans-serif">PRODUCED</text></g><g class="relationship" transform="translate(-137.61288830551752 -226.724697462887) rotate(439.84487547295475)"><path class="outline" fill="#A5ABB6" stroke="none" d="M 24.018736134675446,-6.953439040707552 L 24.277555179777966,-5.987513214418485 A 183.79113142860538 183.79113142860538 0 0 1 51.87382987784498,-11.161634135543693 L 51.76516103032578,-12.155712141325353 A 184.79113142860538 184.79113142860538 0 0 0 24.018736134675446,-6.953439040707552 Z M 87.57686024719595,-12.579277140812536 L 87.49173354327276,-11.582907006635878 A 183.79113142860538 183.79113142860538 0 0 1 115.2026656969621,-7.062935359465385 L 114.49496345291728,-4.147603897388745 L 122.1230561491484,-5.897518700373561 L 116.14626868902188,-10.95004397556757 L 115.43856644497706,-8.03471251349093 A 184.79113142860538 184.79113142860538 0 0 0 87.57686024719595,-12.579277140812536"/><text text-anchor="middle" pointer-events="none" font-size="8px" fill="#000000" x="69.66663845707279" y="-9.737155155333483" font-family="sans-serif">WROTE</text></g><g class="relationship" transform="translate(-137.61288830551752 -226.724697462887) rotate(392.40376516081346)"><path class="outline" fill="#A5ABB6" stroke="none" d="M 25 0.5 L 106.34438548379873 0.5 L 106.34438548379873 -0.5 L 25 -0.5 Z M 153.23501048379873 0.5 L 234.57939596759746 0.5 L 234.57939596759746 3.5 L 241.57939596759746 0 L 234.57939596759746 -3.5 L 234.57939596759746 -0.5 L 153.23501048379873 -0.5 Z"/><text text-anchor="middle" pointer-events="none" font-size="8px" fill="#000000" x="129.78969798379873" y="3" font-family="sans-serif">DIRECTED</text></g><g class="relationship" transform="translate(-137.61288830551752 -226.724697462887) rotate(431.57208942534675)"><path class="outline" fill="#A5ABB6" stroke="none" d="M 25 0.5 L 93.66715491314652 0.5 L 93.66715491314652 -0.5 L 25 -0.5 Z M 140.55777991314653 0.5 L 209.22493482629304 0.5 L 209.22493482629304 3.5 L 216.22493482629304 0 L 209.22493482629304 -3.5 L 209.22493482629304 -0.5 L 140.55777991314653 -0.5 Z"/><text text-anchor="middle" pointer-events="none" font-size="8px" fill="#000000" x="117.11246741314652" y="3" font-family="sans-serif">DIRECTED</text></g><g class="relationship" transform="translate(-137.61288830551752 -226.724697462887) rotate(408.8460670235726)"><path class="outline" fill="#A5ABB6" stroke="none" d="M 25 0.5 L 68.42493211499924 0.5 L 68.42493211499924 -0.5 L 25 -0.5 Z M 115.31555711499924 0.5 L 158.74048922999847 0.5 L 158.74048922999847 3.5 L 165.74048922999847 0 L 158.74048922999847 -3.5 L 158.74048922999847 -0.5 L 115.31555711499924 -0.5 Z"/><text text-anchor="middle" pointer-events="none" font-size="8px" fill="#000000" x="91.87024461499924" y="3" font-family="sans-serif">DIRECTED</text></g><g class="relationship" transform="translate(-137.61288830551752 -226.724697462887) rotate(412.4247065219548)"><path class="outline" fill="#A5ABB6" stroke="none" d="M 25 0.5 L 116.79788042370788 0.5 L 116.79788042370788 -0.5 L 25 -0.5 Z M 163.68850542370788 0.5 L 255.48638584741576 0.5 L 255.48638584741576 3.5 L 262.48638584741576 0 L 255.48638584741576 -3.5 L 255.48638584741576 -0.5 L 163.68850542370788 -0.5 Z"/><text text-anchor="middle" pointer-events="none" font-size="8px" fill="#000000" x="140.24319292370788" y="3" font-family="sans-serif">DIRECTED</text></g><g class="relationship" transform="translate(-284.20013215829226 -163.75126242126598) rotate(385.2064574790152)"><path class="outline" fill="#A5ABB6" stroke="none" d="M 25 0.5 L 68.32804236512466 0.5 L 68.32804236512466 -0.5 L 25 -0.5 Z M 115.21866736512466 0.5 L 158.54670973024932 0.5 L 158.54670973024932 3.5 L 165.54670973024932 0 L 158.54670973024932 -3.5 L 158.54670973024932 -0.5 L 115.21866736512466 -0.5 Z"/><text text-anchor="middle" pointer-events="none" font-size="8px" fill="#000000" x="91.77335486512466" y="3" font-family="sans-serif">DIRECTED</text></g></g><g class="layer nodes"><g class="node" aria-label="graph-node108" transform="translate(240.98839386889478,-143.60477138143503)"><circle class="outline" cx="0" cy="0" r="25" fill="#4C8EDA" stroke="#2870c2" stroke-width="2px"/><text class="caption" text-anchor="middle" pointer-events="none" x="0" y="0" font-size="10px" fill="#FFFFFF" font-family="sans-serif"> Tom</text><text class="caption" text-anchor="middle" pointer-events="none" x="0" y="10" font-size="10px" fill="#FFFFFF" font-family="sans-serif"> Tykwer</text></g><g class="node selected" aria-label="graph-node4" transform="translate(15.464499392233812,221.23248697414928)"><circle class="outline" cx="0" cy="0" r="25" fill="#4C8EDA" stroke="#2870c2" stroke-width="2px"/><text class="caption" text-anchor="middle" pointer-events="none" x="0" y="0" font-size="10px" fill="#FFFFFF" font-family="sans-serif"> Hugo</text><text class="caption" text-anchor="middle" pointer-events="none" x="0" y="10" font-size="10px" fill="#FFFFFF" font-family="sans-serif"> Weavi…</text></g><g class="node" aria-label="graph-node105" transform="translate(87.45815290973164,-83.8695233853173)"><circle class="outline" cx="0" cy="0" r="25" fill="#F79767" stroke="#f36924" stroke-width="2px"/><text class="caption" text-anchor="middle" pointer-events="none" x="0" y="0" font-size="10px" fill="#FFFFFF" font-family="sans-serif"> Cloud</text><text class="caption" text-anchor="middle" pointer-events="none" x="0" y="10" font-size="10px" fill="#FFFFFF" font-family="sans-serif"> Atlas</text></g><g class="node" aria-label="graph-node6" transform="translate(89.45305315764841,-238.99194914896853)"><circle class="outline" cx="0" cy="0" r="25" fill="#4C8EDA" stroke="#2870c2" stroke-width="2px"/><text class="caption" text-anchor="middle" pointer-events="none" x="0" y="0" font-size="10px" fill="#FFFFFF" font-family="sans-serif"> Lana</text><text class="caption" text-anchor="middle" pointer-events="none" x="0" y="10" font-size="10px" fill="#FFFFFF" font-family="sans-serif"> Wach…</text></g><g class="node" aria-label="graph-node5" transform="translate(-137.61288830551752,-226.724697462887)"><circle class="outline" cx="0" cy="0" r="25" fill="#4C8EDA" stroke="#2870c2" stroke-width="2px"/><text class="caption" text-anchor="middle" pointer-events="none" x="0" y="0" font-size="10px" fill="#FFFFFF" font-family="sans-serif"> Lilly</text><text class="caption" text-anchor="middle" pointer-events="none" x="0" y="10" font-size="10px" fill="#FFFFFF" font-family="sans-serif"> Wach…</text></g><g class="node" aria-label="graph-node25" transform="translate(-284.20013215829226,-163.75126242126598)"><circle class="outline" cx="0" cy="0" r="25" fill="#4C8EDA" stroke="#2870c2" stroke-width="2px"/><text class="caption" text-anchor="middle" pointer-events="none" x="0" y="0" font-size="10px" fill="#FFFFFF" font-family="sans-serif"> James</text><text class="caption" text-anchor="middle" pointer-events="none" x="0" y="10" font-size="10px" fill="#FFFFFF" font-family="sans-serif"> Marsh…</text></g><g class="node" aria-label="graph-node116" transform="translate(-111.79745932342189,-82.60098830948904)"><circle class="outline" cx="0" cy="0" r="25" fill="#F79767" stroke="#f36924" stroke-width="2px"/><text class="caption" text-anchor="middle" pointer-events="none" x="0" y="0" font-size="10px" fill="#FFFFFF" font-family="sans-serif"> V for</text><text class="caption" text-anchor="middle" pointer-events="none" x="0" y="10" font-size="10px" fill="#FFFFFF" font-family="sans-serif"> Vende…</text></g><g class="node" aria-label="graph-node10" transform="translate(-61.35897822279953,2.1307380833243097)"><circle class="outline" cx="0" cy="0" r="25" fill="#F79767" stroke="#f36924" stroke-width="2px"/><text class="caption" text-anchor="middle" pointer-events="none" x="0" y="-5" font-size="10px" fill="#FFFFFF" font-family="sans-serif"> The</text><text class="caption" text-anchor="middle" pointer-events="none" x="0" y="5" font-size="10px" fill="#FFFFFF" font-family="sans-serif"> Matrix</text><text class="caption" text-anchor="middle" pointer-events="none" x="0" y="15" font-size="10px" fill="#FFFFFF" font-family="sans-serif"> Rev…</text></g><g class="node" aria-label="graph-node9" transform="translate(-12.089568931192755,-83.10773981181285)"><circle class="outline" cx="0" cy="0" r="25" fill="#F79767" stroke="#f36924" stroke-width="2px"/><text class="caption" text-anchor="middle" pointer-events="none" x="0" y="-5" font-size="10px" fill="#FFFFFF" font-family="sans-serif"> The</text><text class="caption" text-anchor="middle" pointer-events="none" x="0" y="5" font-size="10px" fill="#FFFFFF" font-family="sans-serif"> Matrix</text><text class="caption" text-anchor="middle" pointer-events="none" x="0" y="15" font-size="10px" fill="#FFFFFF" font-family="sans-serif"> Rel…</text></g><g class="node" aria-label="graph-node0" transform="translate(37.697305592864666,1.1234053664340122)"><circle class="outline" cx="0" cy="0" r="25" fill="#F79767" stroke="#f36924" stroke-width="2px"/><text class="caption" text-anchor="middle" pointer-events="none" x="0" y="0" font-size="10px" fill="#FFFFFF" font-family="sans-serif"> The</text><text class="caption" text-anchor="middle" pointer-events="none" x="0" y="10" font-size="10px" fill="#FFFFFF" font-family="sans-serif"> Matrix</text></g></g></svg>