<svg xmlns="http://www.w3.org/2000/svg" width="661.8318481445312" height="398.2701110839844" viewBox="-421.90997314453125 -62.27418899536133 661.8318481445312 398.2701110839844"><title>Neo4j Graph Visualization</title><desc>Created using Neo4j (http://www.neo4j.com/)</desc><g class="layer relationships"><g class="relationship" transform="translate(135.74208397126364 265.93227231063776) rotate(531.7797640337525)"><path class="outline" fill="#A5ABB6" stroke="none" d="M 25 0.5 L 117.31948332425821 0.5 L 117.31948332425821 -0.5 L 25 -0.5 Z M 162.88198332425821 0.5 L 255.20146664851643 0.5 L 255.20146664851643 3.5 L 262.20146664851643 0 L 255.20146664851643 -3.5 L 255.20146664851643 -0.5 L 162.88198332425821 -0.5 Z"/><text text-anchor="middle" pointer-events="none" font-size="8px" fill="#000000" x="140.10073332425821" y="3" transform="rotate(180 140.10073332425821 0)" font-family="sans-serif">ACTED_IN</text></g><g class="relationship" transform="translate(66.71747448992352 101.93393323011783) rotate(342.7278937890417)"><path class="outline" fill="#A5ABB6" stroke="none" d="M 25 0.5 L 49.225878500064596 0.5 L 49.225878500064596 -0.5 L 25 -0.5 Z M 94.7883785000646 0.5 L 119.01425700012919 0.5 L 119.01425700012919 3.5 L 126.01425700012919 0 L 119.01425700012919 -3.5 L 119.01425700012919 -0.5 L 94.7883785000646 -0.5 Z"/><text text-anchor="middle" pointer-events="none" font-size="8px" fill="#000000" x="72.0071285000646" y="3" font-family="sans-serif">ACTED_IN</text></g><g class="relationship" transform="translate(66.71747448992352 101.93393323011783) rotate(297.93998050839673)"><path class="outline" fill="#A5ABB6" stroke="none" d="M 25 0.5 L 50.24250415365431 0.5 L 50.24250415365431 -0.5 L 25 -0.5 Z M 95.80500415365431 0.5 L 121.04750830730862 0.5 L 121.04750830730862 3.5 L 128.04750830730862 0 L 121.04750830730862 -3.5 L 121.04750830730862 -0.5 L 95.80500415365431 -0.5 Z"/><text text-anchor="middle" pointer-events="none" font-size="8px" fill="#000000" x="73.02375415365431" y="3" font-family="sans-serif">ACTED_IN</text></g><g class="relationship" transform="translate(66.71747448992352 101.93393323011783) rotate(200.16879125146073)"><path class="outline" fill="#A5ABB6" stroke="none" d="M 25 0.5 L 80.19850804700637 0.5 L 80.19850804700637 -0.5 L 25 -0.5 Z M 125.76100804700637 0.5 L 180.95951609401274 0.5 L 180.95951609401274 3.5 L 187.95951609401274 0 L 180.95951609401274 -3.5 L 180.95951609401274 -0.5 L 125.76100804700637 -0.5 Z"/><text text-anchor="middle" pointer-events="none" font-size="8px" fill="#000000" x="102.97975804700637" y="3" transform="rotate(180 102.97975804700637 0)" font-family="sans-serif">ACTED_IN</text></g><g class="relationship" transform="translate(66.71747448992352 101.93393323011783) rotate(221.50974367273972)"><path class="outline" fill="#A5ABB6" stroke="none" d="M 25 0.5 L 42.36987036520243 0.5 L 42.36987036520243 -0.5 L 25 -0.5 Z M 87.93237036520243 0.5 L 105.30224073040486 0.5 L 105.30224073040486 3.5 L 112.30224073040486 0 L 105.30224073040486 -3.5 L 105.30224073040486 -0.5 L 87.93237036520243 -0.5 Z"/><text text-anchor="middle" pointer-events="none" font-size="8px" fill="#000000" x="65.15112036520243" y="3" transform="rotate(180 65.15112036520243 0)" font-family="sans-serif">ACTED_IN</text></g><g class="relationship" transform="translate(66.71747448992352 101.93393323011783) rotate(496.3853534311089)"><path class="outline" fill="#A5ABB6" stroke="none" d="M 25 0.5 L 122.35646639539885 0.5 L 122.35646639539885 -0.5 L 25 -0.5 Z M 167.91896639539885 0.5 L 265.2754327907977 0.5 L 265.2754327907977 3.5 L 272.2754327907977 0 L 265.2754327907977 -3.5 L 265.2754327907977 -0.5 L 167.91896639539885 -0.5 Z"/><text text-anchor="middle" pointer-events="none" font-size="8px" fill="#000000" x="145.13771639539885" y="3" transform="rotate(180 145.13771639539885 0)" font-family="sans-serif">ACTED_IN</text></g><g class="relationship" transform="translate(-141.70790576827238 143.359089719679) rotate(274.24476369082606)"><path class="outline" fill="#A5ABB6" stroke="none" d="M 25 0.5 L 31.30211361412716 0.5 L 31.30211361412716 -0.5 L 25 -0.5 Z M 76.86461361412717 0.5 L 83.16672722825432 0.5 L 83.16672722825432 3.5 L 90.16672722825432 0 L 83.16672722825432 -3.5 L 83.16672722825432 -0.5 L 76.86461361412717 -0.5 Z"/><text text-anchor="middle" pointer-events="none" font-size="8px" fill="#000000" x="54.08336361412716" y="3" font-family="sans-serif">ACTED_IN</text></g><g class="relationship" transform="translate(-141.70790576827238 143.359089719679) rotate(308.5726571117149)"><path class="outline" fill="#A5ABB6" stroke="none" d="M 25 0.5 L 58.40715643813071 0.5 L 58.40715643813071 -0.5 L 25 -0.5 Z M 103.96965643813071 0.5 L 137.37681287626143 0.5 L 137.37681287626143 3.5 L 144.37681287626143 0 L 137.37681287626143 -3.5 L 137.37681287626143 -0.5 L 103.96965643813071 -0.5 Z"/><text text-anchor="middle" pointer-events="none" font-size="8px" fill="#000000" x="81.18840643813071" y="3" font-family="sans-serif">ACTED_IN</text></g><g class="relationship" transform="translate(-141.70790576827238 143.359089719679) rotate(452.37983046862394)"><path class="outline" fill="#A5ABB6" stroke="none" d="M 25 0.5 L 55.60778700174275 0.5 L 55.60778700174275 -0.5 L 25 -0.5 Z M 101.17028700174275 0.5 L 131.7780740034855 0.5 L 131.7780740034855 3.5 L 138.7780740034855 0 L 131.7780740034855 -3.5 L 131.7780740034855 -0.5 L 101.17028700174275 -0.5 Z"/><text text-anchor="middle" pointer-events="none" font-size="8px" fill="#000000" x="78.38903700174275" y="3" transform="rotate(180 78.38903700174275 0)" font-family="sans-serif">ACTED_IN</text></g><g class="relationship" transform="translate(-23.426471858472894 143.02890488179443) rotate(226.216748191669)"><path class="outline" fill="#A5ABB6" stroke="none" d="M 25 0.5 L 53.03078616353322 0.5 L 53.03078616353322 -0.5 L 25 -0.5 Z M 98.59328616353322 0.5 L 126.62407232706644 0.5 L 126.62407232706644 3.5 L 133.62407232706644 0 L 126.62407232706644 -3.5 L 126.62407232706644 -0.5 L 98.59328616353322 -0.5 Z"/><text text-anchor="middle" pointer-events="none" font-size="8px" fill="#000000" x="75.81203616353322" y="3" transform="rotate(180 75.81203616353322 0)" font-family="sans-serif">ACTED_IN</text></g><g class="relationship" transform="translate(-23.426471858472894 143.02890488179443) rotate(264.51938456151134)"><path class="outline" fill="#A5ABB6" stroke="none" d="M 25 0.5 L 40.06789832332481 0.5 L 40.06789832332481 -0.5 L 25 -0.5 Z M 85.63039832332481 0.5 L 100.69829664664962 0.5 L 100.69829664664962 3.5 L 107.69829664664962 0 L 100.69829664664962 -3.5 L 100.69829664664962 -0.5 L 85.63039832332481 -0.5 Z"/><text text-anchor="middle" pointer-events="none" font-size="8px" fill="#000000" x="62.84914832332481" y="3" transform="rotate(180 62.84914832332481 0)" font-family="sans-serif">ACTED_IN</text></g><g class="relationship" transform="translate(-23.426471858472894 143.02890488179443) rotate(487.33818076360336)"><path class="outline" fill="#A5ABB6" stroke="none" d="M 25 0.5 L 76.83363791361813 0.5 L 76.83363791361813 -0.5 L 25 -0.5 Z M 122.39613791361813 0.5 L 174.22977582723627 0.5 L 174.22977582723627 3.5 L 181.22977582723627 0 L 174.22977582723627 -3.5 L 174.22977582723627 -0.5 L 122.39613791361813 -0.5 Z"/><text text-anchor="middle" pointer-events="none" font-size="8px" fill="#000000" x="99.61488791361813" y="3" transform="rotate(180 99.61488791361813 0)" font-family="sans-serif">ACTED_IN</text></g><g class="relationship" transform="translate(-259.26394577830484 163.06767883107878) rotate(280.44371827679583)"><path class="outline" fill="#A5ABB6" stroke="none" d="M 25 0.5 L 51.05517914896333 0.5 L 51.05517914896333 -0.5 L 25 -0.5 Z M 96.61767914896333 0.5 L 122.67285829792667 0.5 L 122.67285829792667 3.5 L 129.67285829792667 0 L 122.67285829792667 -3.5 L 122.67285829792667 -0.5 L 96.61767914896333 -0.5 Z"/><text text-anchor="middle" pointer-events="none" font-size="8px" fill="#000000" x="73.83642914896333" y="3" font-family="sans-serif">ACTED_IN</text></g><g class="relationship" transform="translate(-259.26394577830484 163.06767883107878) rotate(242.8024783527748)"><path class="outline" fill="#A5ABB6" stroke="none" d="M 25 0.5 L 50.70056606833644 0.5 L 50.70056606833644 -0.5 L 25 -0.5 Z M 96.26306606833644 0.5 L 121.96363213667289 0.5 L 121.96363213667289 3.5 L 128.96363213667289 0 L 121.96363213667289 -3.5 L 121.96363213667289 -0.5 L 96.26306606833644 -0.5 Z"/><text text-anchor="middle" pointer-events="none" font-size="8px" fill="#000000" x="73.48181606833644" y="3" transform="rotate(180 73.48181606833644 0)" font-family="sans-serif">ACTED_IN</text></g><g class="relationship" transform="translate(-259.26394577830484 163.06767883107878) rotate(516.7845302103349)"><path class="outline" fill="#A5ABB6" stroke="none" d="M 25 0.5 L 43.104893660452205 0.5 L 43.104893660452205 -0.5 L 25 -0.5 Z M 88.6673936604522 0.5 L 106.77228732090441 0.5 L 106.77228732090441 3.5 L 113.77228732090441 0 L 106.77228732090441 -3.5 L 106.77228732090441 -0.5 L 88.6673936604522 -0.5 Z"/><text text-anchor="middle" pointer-events="none" font-size="8px" fill="#000000" x="65.8861436604522" y="3" transform="rotate(180 65.8861436604522 0)" font-family="sans-serif">ACTED_IN</text></g><g class="relationship" transform="translate(-259.26394577830484 163.06767883107878) rotate(204.13126699833407)"><path class="outline" fill="#A5ABB6" stroke="none" d="M 25 0.5 L 46.940534324083785 0.5 L 46.940534324083785 -0.5 L 25 -0.5 Z M 92.50303432408379 0.5 L 114.44356864816757 0.5 L 114.44356864816757 3.5 L 121.44356864816757 0 L 114.44356864816757 -3.5 L 114.44356864816757 -0.5 L 92.50303432408379 -0.5 Z"/><text text-anchor="middle" pointer-events="none" font-size="8px" fill="#000000" x="69.72178432408379" y="3" transform="rotate(180 69.72178432408379 0)" font-family="sans-serif">ACTED_IN</text></g><g class="relationship" transform="translate(-259.26394577830484 163.06767883107878) rotate(313.1367329765749)"><path class="outline" fill="#A5ABB6" stroke="none" d="M 25 0.5 L 65.91757819162564 0.5 L 65.91757819162564 -0.5 L 25 -0.5 Z M 111.48007819162564 0.5 L 152.39765638325127 0.5 L 152.39765638325127 3.5 L 159.39765638325127 0 L 152.39765638325127 -3.5 L 152.39765638325127 -0.5 L 111.48007819162564 -0.5 Z"/><text text-anchor="middle" pointer-events="none" font-size="8px" fill="#000000" x="88.69882819162564" y="3" font-family="sans-serif">ACTED_IN</text></g><g class="relationship" transform="translate(-259.26394577830484 163.06767883107878) rotate(325.7177760996177)"><path class="outline" fill="#A5ABB6" stroke="none" d="M 25 0.5 L 108.76102462101895 0.5 L 108.76102462101895 -0.5 L 25 -0.5 Z M 154.32352462101895 0.5 L 238.0845492420379 0.5 L 238.0845492420379 3.5 L 245.0845492420379 0 L 238.0845492420379 -3.5 L 238.0845492420379 -0.5 L 154.32352462101895 -0.5 Z"/><text text-anchor="middle" pointer-events="none" font-size="8px" fill="#000000" x="131.54227462101895" y="3" font-family="sans-serif">ACTED_IN</text></g><g class="relationship" transform="translate(-259.26394577830484 163.06767883107878) rotate(412.4210782219213)"><path class="outline" fill="#A5ABB6" stroke="none" d="M 25 0.5 L 64.52359275246398 0.5 L 64.52359275246398 -0.5 L 25 -0.5 Z M 110.08609275246398 0.5 L 149.60968550492797 0.5 L 149.60968550492797 3.5 L 156.60968550492797 0 L 149.60968550492797 -3.5 L 149.60968550492797 -0.5 L 110.08609275246398 -0.5 Z"/><text text-anchor="middle" pointer-events="none" font-size="8px" fill="#000000" x="87.30484275246398" y="3" font-family="sans-serif">ACTED_IN</text></g></g><g class="layer nodes"><g class="node" aria-label="graph-node0" transform="translate(-148.508615899755,306.9959066833401)"><circle class="outline" cx="0" cy="0" r="25" fill="#F79767" stroke="#f36924" stroke-width="2px"/><text class="caption" text-anchor="middle" pointer-events="none" x="0" y="0" font-size="10px" fill="#FFFFFF" font-family="sans-serif"> The</text><text class="caption" text-anchor="middle" pointer-events="none" x="0" y="10" font-size="10px" fill="#FFFFFF" font-family="sans-serif"> Matrix</text></g><g class="node" aria-label="graph-node8" transform="translate(135.74208397126364,265.93227231063776)"><circle class="outline" cx="0" cy="0" r="25" fill="#4C8EDA" stroke="#2870c2" stroke-width="2px"/><text class="caption" text-anchor="middle" pointer-events="none" x="0" y="0" font-size="10px" fill="#FFFFFF" font-family="sans-serif"> Emil</text><text class="caption" text-anchor="middle" pointer-events="none" x="0" y="10" font-size="10px" fill="#FFFFFF" font-family="sans-serif"> Eifrem</text></g><g class="node" aria-label="graph-node105" transform="translate(210.92181301876295,57.09628647249965)"><circle class="outline" cx="0" cy="0" r="25" fill="#F79767" stroke="#f36924" stroke-width="2px"/><text class="caption" text-anchor="middle" pointer-events="none" x="0" y="0" font-size="10px" fill="#FFFFFF" font-family="sans-serif"> Cloud</text><text class="caption" text-anchor="middle" pointer-events="none" x="0" y="10" font-size="10px" fill="#FFFFFF" font-family="sans-serif"> Atlas</text></g><g class="node" aria-label="graph-node4" transform="translate(66.71747448992352,101.93393323011783)"><circle class="outline" cx="0" cy="0" r="25" fill="#4C8EDA" stroke="#2870c2" stroke-width="2px"/><text class="caption" text-anchor="middle" pointer-events="none" x="0" y="0" font-size="10px" fill="#FFFFFF" font-family="sans-serif"> Hugo</text><text class="caption" text-anchor="middle" pointer-events="none" x="0" y="10" font-size="10px" fill="#FFFFFF" font-family="sans-serif"> Weavi…</text></g><g class="node" aria-label="graph-node116" transform="translate(138.4273311551464,-33.27418877491887)"><circle class="outline" cx="0" cy="0" r="25" fill="#F79767" stroke="#f36924" stroke-width="2px"/><text class="caption" text-anchor="middle" pointer-events="none" x="0" y="0" font-size="10px" fill="#FFFFFF" font-family="sans-serif"> V for</text><text class="caption" text-anchor="middle" pointer-events="none" x="0" y="10" font-size="10px" fill="#FFFFFF" font-family="sans-serif"> Vende…</text></g><g class="node" aria-label="graph-node10" transform="translate(-133.18356976941345,28.50827014817706)"><circle class="outline" cx="0" cy="0" r="25" fill="#F79767" stroke="#f36924" stroke-width="2px"/><text class="caption" text-anchor="middle" pointer-events="none" x="0" y="-5" font-size="10px" fill="#FFFFFF" font-family="sans-serif"> The</text><text class="caption" text-anchor="middle" pointer-events="none" x="0" y="5" font-size="10px" fill="#FFFFFF" font-family="sans-serif"> Matrix</text><text class="caption" text-anchor="middle" pointer-events="none" x="0" y="15" font-size="10px" fill="#FFFFFF" font-family="sans-serif"> Rev…</text></g><g class="node" aria-label="graph-node9" transform="translate(-36.100350845117525,10.93722942738091)"><circle class="outline" cx="0" cy="0" r="25" fill="#F79767" stroke="#f36924" stroke-width="2px"/><text class="caption" text-anchor="middle" pointer-events="none" x="0" y="-5" font-size="10px" fill="#FFFFFF" font-family="sans-serif"> The</text><text class="caption" text-anchor="middle" pointer-events="none" x="0" y="5" font-size="10px" fill="#FFFFFF" font-family="sans-serif"> Matrix</text><text class="caption" text-anchor="middle" pointer-events="none" x="0" y="15" font-size="10px" fill="#FFFFFF" font-family="sans-serif"> Rel…</text></g><g class="node" aria-label="graph-node3" transform="translate(-141.70790576827238,143.359089719679)"><circle class="outline" cx="0" cy="0" r="25" fill="#4C8EDA" stroke="#2870c2" stroke-width="2px"/><text class="caption" text-anchor="middle" pointer-events="none" x="0" y="0" font-size="10px" fill="#FFFFFF" font-family="sans-serif"> Laurence</text><text class="caption" text-anchor="middle" pointer-events="none" x="0" y="10" font-size="10px" fill="#FFFFFF" font-family="sans-serif"> Fishb…</text></g><g class="node" aria-label="graph-node2" transform="translate(-23.426471858472894,143.02890488179443)"><circle class="outline" cx="0" cy="0" r="25" fill="#4C8EDA" stroke="#2870c2" stroke-width="2px"/><text class="caption" text-anchor="middle" pointer-events="none" x="0" y="5" font-size="10px" fill="#FFFFFF" font-family="sans-serif"> Carrie-A…</text></g><g class="node" aria-label="graph-node154" transform="translate(-231.22646093223352,10.957217200207301)"><circle class="outline" cx="0" cy="0" r="25" fill="#F79767" stroke="#f36924" stroke-width="2px"/><text class="caption" text-anchor="middle" pointer-events="none" x="0" y="5" font-size="10px" fill="#FFFFFF" font-family="sans-serif"> Somethi…</text></g><g class="node" aria-label="graph-node1" transform="translate(-259.26394577830484,163.06767883107878)"><circle class="outline" cx="0" cy="0" r="25" fill="#4C8EDA" stroke="#2870c2" stroke-width="2px"/><text class="caption" text-anchor="middle" pointer-events="none" x="0" y="0" font-size="10px" fill="#FFFFFF" font-family="sans-serif"> Keanu</text><text class="caption" text-anchor="middle" pointer-events="none" x="0" y="10" font-size="10px" fill="#FFFFFF" font-family="sans-serif"> Reeves</text></g><g class="node" aria-label="graph-node87" transform="translate(-329.63447950413905,26.126859482507776)"><circle class="outline" cx="0" cy="0" r="25" fill="#F79767" stroke="#f36924" stroke-width="2px"/><text class="caption" text-anchor="middle" pointer-events="none" x="0" y="0" font-size="10px" fill="#FFFFFF" font-family="sans-serif"> The</text><text class="caption" text-anchor="middle" pointer-events="none" x="0" y="10" font-size="10px" fill="#FFFFFF" font-family="sans-serif"> Repla…</text></g><g class="node" aria-label="graph-node100" transform="translate(-386.79969416342766,217.7703351845164)"><circle class="outline" cx="0" cy="0" r="25" fill="#F79767" stroke="#f36924" stroke-width="2px"/><text class="caption" text-anchor="middle" pointer-events="none" x="0" y="0" font-size="10px" fill="#FFFFFF" font-family="sans-serif"> Johnny</text><text class="caption" text-anchor="middle" pointer-events="none" x="0" y="10" font-size="10px" fill="#FFFFFF" font-family="sans-serif"> Mnem…</text></g><g class="node" aria-label="graph-node11" transform="translate(-392.90998822673055,103.19736785573672)"><circle class="outline" cx="0" cy="0" r="25" fill="#F79767" stroke="#f36924" stroke-width="2px"/><text class="caption" text-anchor="middle" pointer-events="none" x="0" y="-5" font-size="10px" fill="#FFFFFF" font-family="sans-serif"> The</text><text class="caption" text-anchor="middle" pointer-events="none" x="0" y="5" font-size="10px" fill="#FFFFFF" font-family="sans-serif"> Devil's</text><text class="caption" text-anchor="middle" pointer-events="none" x="0" y="15" font-size="10px" fill="#FFFFFF" font-family="sans-serif"> Adv…</text></g></g></svg>