<svg xmlns="http://www.w3.org/2000/svg" width="637.46533203125" height="607.517822265625" viewBox="-355.89251708984375 -285.2979736328125 637.46533203125 607.517822265625"><title>Neo4j Graph Visualization</title><desc>Created using Neo4j (http://www.neo4j.com/)</desc><g class="layer relationships"><g class="relationship" transform="translate(-30.81713461961735 19.031098649860127) rotate(405.7783634808916)"><path class="outline" fill="#A5ABB6" stroke="none" d="M 25 0.5 L 62.43520172532935 0.5 L 62.43520172532935 -0.5 L 25 -0.5 Z M 107.99770172532935 0.5 L 145.4329034506587 0.5 L 145.4329034506587 3.5 L 152.4329034506587 0 L 145.4329034506587 -3.5 L 145.4329034506587 -0.5 L 107.99770172532935 -0.5 Z"/><text text-anchor="middle" pointer-events="none" font-size="8px" fill="#000000" x="85.21645172532935" y="3" font-family="sans-serif">ACTED_IN</text></g><g class="relationship" transform="translate(-30.81713461961735 19.031098649860127) rotate(317.006271522801)"><path class="outline" fill="#A5ABB6" stroke="none" d="M 25 0.5 L 67.07481654007556 0.5 L 67.07481654007556 -0.5 L 25 -0.5 Z M 112.63731654007556 0.5 L 154.71213308015112 0.5 L 154.71213308015112 3.5 L 161.71213308015112 0 L 154.71213308015112 -3.5 L 154.71213308015112 -0.5 L 112.63731654007556 -0.5 Z"/><text text-anchor="middle" pointer-events="none" font-size="8px" fill="#000000" x="89.85606654007556" y="3" font-family="sans-serif">ACTED_IN</text></g><g class="relationship" transform="translate(-30.81713461961735 19.031098649860127) rotate(208.15649014493727)"><path class="outline" fill="#A5ABB6" stroke="none" d="M 25 0.5 L 79.38346566451861 0.5 L 79.38346566451861 -0.5 L 25 -0.5 Z M 124.94596566451861 0.5 L 179.32943132903722 0.5 L 179.32943132903722 3.5 L 186.32943132903722 0 L 179.32943132903722 -3.5 L 179.32943132903722 -0.5 L 124.94596566451861 -0.5 Z"/><text text-anchor="middle" pointer-events="none" font-size="8px" fill="#000000" x="102.16471566451861" y="3" transform="rotate(180 102.16471566451861 0)" font-family="sans-serif">ACTED_IN</text></g><g class="relationship" transform="translate(-30.81713461961735 19.031098649860127) rotate(181.28003978792805)"><path class="outline" fill="#A5ABB6" stroke="none" d="M 25 0.5 L 54.301922461974655 0.5 L 54.301922461974655 -0.5 L 25 -0.5 Z M 99.86442246197466 0.5 L 129.1663449239493 0.5 L 129.1663449239493 3.5 L 136.1663449239493 0 L 129.1663449239493 -3.5 L 129.1663449239493 -0.5 L 99.86442246197466 -0.5 Z"/><text text-anchor="middle" pointer-events="none" font-size="8px" fill="#000000" x="77.08317246197466" y="3" transform="rotate(180 77.08317246197466 0)" font-family="sans-serif">ACTED_IN</text></g><g class="relationship" transform="translate(-30.81713461961735 19.031098649860127) rotate(505.91852755048484)"><path class="outline" fill="#A5ABB6" stroke="none" d="M 25 0.5 L 56.63304908808827 0.5 L 56.63304908808827 -0.5 L 25 -0.5 Z M 102.19554908808827 0.5 L 133.82859817617654 0.5 L 133.82859817617654 3.5 L 140.82859817617654 0 L 133.82859817617654 -3.5 L 133.82859817617654 -0.5 L 102.19554908808827 -0.5 Z"/><text text-anchor="middle" pointer-events="none" font-size="8px" fill="#000000" x="79.41429908808827" y="3" transform="rotate(180 79.41429908808827 0)" font-family="sans-serif">ACTED_IN</text></g><g class="relationship" transform="translate(88.22912370734203 293.21979944725996) rotate(271.8315845986832)"><path class="outline" fill="#A5ABB6" stroke="none" d="M 25 0.5 L 47.27227494533706 0.5 L 47.27227494533706 -0.5 L 25 -0.5 Z M 92.83477494533706 0.5 L 115.10704989067412 0.5 L 115.10704989067412 3.5 L 122.10704989067412 0 L 115.10704989067412 -3.5 L 115.10704989067412 -0.5 L 92.83477494533706 -0.5 Z"/><text text-anchor="middle" pointer-events="none" font-size="8px" fill="#000000" x="70.05352494533706" y="3" font-family="sans-serif">ACTED_IN</text></g><g class="relationship" transform="translate(211.06046189676047 234.74583995313492) rotate(216.85772008521906)"><path class="outline" fill="#A5ABB6" stroke="none" d="M 25 0.5 L 47.53794789683113 0.5 L 47.53794789683113 -0.5 L 25 -0.5 Z M 93.10044789683113 0.5 L 115.63839579366226 0.5 L 115.63839579366226 3.5 L 122.63839579366226 0 L 115.63839579366226 -3.5 L 115.63839579366226 -0.5 L 93.10044789683113 -0.5 Z"/><text text-anchor="middle" pointer-events="none" font-size="8px" fill="#000000" x="70.31919789683113" y="3" transform="rotate(180 70.31919789683113 0)" font-family="sans-serif">ACTED_IN</text></g><g class="relationship" transform="translate(236.7619221542357 115.24222596471489) rotate(527.8577373028447)"><path class="outline" fill="#A5ABB6" stroke="none" d="M 25 0.5 L 47.27993577599062 0.5 L 47.27993577599062 -0.5 L 25 -0.5 Z M 92.84243577599062 0.5 L 115.12237155198125 0.5 L 115.12237155198125 3.5 L 122.12237155198125 0 L 115.12237155198125 -3.5 L 115.12237155198125 -0.5 L 92.84243577599062 -0.5 Z"/><text text-anchor="middle" pointer-events="none" font-size="8px" fill="#000000" x="70.06118577599062" y="3" transform="rotate(180 70.06118577599062 0)" font-family="sans-serif">ACTED_IN</text></g><g class="relationship" transform="translate(252.5728330531633 -89.60973004189918) rotate(187.25126495066218)"><path class="outline" fill="#A5ABB6" stroke="none" d="M 25 0.5 L 47.72232886083087 0.5 L 47.72232886083087 -0.5 L 25 -0.5 Z M 93.28482886083087 0.5 L 116.00715772166174 0.5 L 116.00715772166174 3.5 L 123.00715772166174 0 L 116.00715772166174 -3.5 L 116.00715772166174 -0.5 L 93.28482886083087 -0.5 Z"/><text text-anchor="middle" pointer-events="none" font-size="8px" fill="#000000" x="70.50357886083087" y="3" transform="rotate(180 70.50357886083087 0)" font-family="sans-serif">ACTED_IN</text></g><g class="relationship" transform="translate(220.49276175964167 -202.5714387495868) rotate(500.59139405186664)"><path class="outline" fill="#A5ABB6" stroke="none" d="M 25 0.5 L 47.97300338183483 0.5 L 47.97300338183483 -0.5 L 25 -0.5 Z M 93.53550338183483 0.5 L 116.50850676366966 0.5 L 116.50850676366966 3.5 L 123.50850676366966 0 L 116.50850676366966 -3.5 L 116.50850676366966 -0.5 L 93.53550338183483 -0.5 Z"/><text text-anchor="middle" pointer-events="none" font-size="8px" fill="#000000" x="70.75425338183483" y="3" transform="rotate(180 70.75425338183483 0)" font-family="sans-serif">ACTED_IN</text></g><g class="relationship" transform="translate(120.07814654923749 -256.29797013737044) rotate(455.52965342119904)"><path class="outline" fill="#A5ABB6" stroke="none" d="M 25 0.5 L 48.06806141680583 0.5 L 48.06806141680583 -0.5 L 25 -0.5 Z M 93.63056141680583 0.5 L 116.69862283361167 0.5 L 116.69862283361167 3.5 L 123.69862283361167 0 L 116.69862283361167 -3.5 L 116.69862283361167 -0.5 L 93.63056141680583 -0.5 Z"/><text text-anchor="middle" pointer-events="none" font-size="8px" fill="#000000" x="70.84931141680583" y="3" transform="rotate(180 70.84931141680583 0)" font-family="sans-serif">ACTED_IN</text></g><g class="relationship" transform="translate(15.948406359569784 -225.78431282637717) rotate(412.60897773643586)"><path class="outline" fill="#A5ABB6" stroke="none" d="M 25 0.5 L 47.6593063888201 0.5 L 47.6593063888201 -0.5 L 25 -0.5 Z M 93.2218063888201 0.5 L 115.8811127776402 0.5 L 115.8811127776402 3.5 L 122.8811127776402 0 L 115.8811127776402 -3.5 L 115.8811127776402 -0.5 L 93.2218063888201 -0.5 Z"/><text text-anchor="middle" pointer-events="none" font-size="8px" fill="#000000" x="70.4405563888201" y="3" font-family="sans-serif">ACTED_IN</text></g><g class="relationship" transform="translate(-91.35982674929002 -59.825485088519315) rotate(189.41922029264822)"><path class="outline" fill="#A5ABB6" stroke="none" d="M 25 0.5 L 37.467477457836 0.5 L 37.467477457836 -0.5 L 25 -0.5 Z M 83.029977457836 0.5 L 95.497454915672 0.5 L 95.497454915672 3.5 L 102.497454915672 0 L 95.497454915672 -3.5 L 95.497454915672 -0.5 L 83.029977457836 -0.5 Z"/><text text-anchor="middle" pointer-events="none" font-size="8px" fill="#000000" x="60.248727457836" y="3" transform="rotate(180 60.248727457836 0)" font-family="sans-serif">ACTED_IN</text></g><g class="relationship" transform="translate(-91.35982674929002 -59.825485088519315) rotate(503.1962535277222)"><path class="outline" fill="#A5ABB6" stroke="none" d="M 25 0.5 L 36.529049691334876 0.5 L 36.529049691334876 -0.5 L 25 -0.5 Z M 82.09154969133488 0.5 L 93.62059938266975 0.5 L 93.62059938266975 3.5 L 100.62059938266975 0 L 93.62059938266975 -3.5 L 93.62059938266975 -0.5 L 82.09154969133488 -0.5 Z"/><text text-anchor="middle" pointer-events="none" font-size="8px" fill="#000000" x="59.310299691334876" y="3" transform="rotate(180 59.310299691334876 0)" font-family="sans-serif">ACTED_IN</text></g><g class="relationship" transform="translate(-91.35982674929002 -59.825485088519315) rotate(474.08932056460685)"><path class="outline" fill="#A5ABB6" stroke="none" d="M 25 0.5 L 67.80365598696294 0.5 L 67.80365598696294 -0.5 L 25 -0.5 Z M 113.36615598696294 0.5 L 156.16981197392587 0.5 L 156.16981197392587 3.5 L 163.16981197392587 0 L 156.16981197392587 -3.5 L 156.16981197392587 -0.5 L 113.36615598696294 -0.5 Z"/><text text-anchor="middle" pointer-events="none" font-size="8px" fill="#000000" x="90.58490598696294" y="3" transform="rotate(180 90.58490598696294 0)" font-family="sans-serif">ACTED_IN</text></g><g class="relationship" transform="translate(-326.89250528663405 -7.449321803972138) rotate(326.2837329066965)"><path class="outline" fill="#A5ABB6" stroke="none" d="M 25 0.5 L 39.692953670159596 0.5 L 39.692953670159596 -0.5 L 25 -0.5 Z M 85.2554536701596 0.5 L 99.94840734031919 0.5 L 99.94840734031919 3.5 L 106.94840734031919 0 L 99.94840734031919 -3.5 L 99.94840734031919 -0.5 L 85.2554536701596 -0.5 Z"/><text text-anchor="middle" pointer-events="none" font-size="8px" fill="#000000" x="62.474203670159596" y="3" font-family="sans-serif">ACTED_IN</text></g><g class="relationship" transform="translate(-326.89250528663405 -7.449321803972138) rotate(369.62276703726104)"><path class="outline" fill="#A5ABB6" stroke="none" d="M 25 0.5 L 42.15630976064821 0.5 L 42.15630976064821 -0.5 L 25 -0.5 Z M 87.71880976064821 0.5 L 104.87511952129643 0.5 L 104.87511952129643 3.5 L 111.87511952129643 0 L 104.87511952129643 -3.5 L 104.87511952129643 -0.5 L 87.71880976064821 -0.5 Z"/><text text-anchor="middle" pointer-events="none" font-size="8px" fill="#000000" x="64.93755976064821" y="3" font-family="sans-serif">ACTED_IN</text></g><g class="relationship" transform="translate(-326.89250528663405 -7.449321803972138) rotate(396.9527588147994)"><path class="outline" fill="#A5ABB6" stroke="none" d="M 25 0.5 L 73.03234304355537 0.5 L 73.03234304355537 -0.5 L 25 -0.5 Z M 118.59484304355537 0.5 L 166.62718608711074 0.5 L 166.62718608711074 3.5 L 173.62718608711074 0 L 166.62718608711074 -3.5 L 166.62718608711074 -0.5 L 118.59484304355537 -0.5 Z"/><text text-anchor="middle" pointer-events="none" font-size="8px" fill="#000000" x="95.81359304355537" y="3" font-family="sans-serif">ACTED_IN</text></g><g class="relationship" transform="translate(-309.28587801621285 90.1271948677278) rotate(298.3445266476066)"><path class="outline" fill="#A5ABB6" stroke="none" d="M 25 0.5 L 70.76274434711996 0.5 L 70.76274434711996 -0.5 L 25 -0.5 Z M 116.32524434711996 0.5 L 162.08798869423993 0.5 L 162.08798869423993 3.5 L 169.08798869423993 0 L 162.08798869423993 -3.5 L 162.08798869423993 -0.5 L 116.32524434711996 -0.5 Z"/><text text-anchor="middle" pointer-events="none" font-size="8px" fill="#000000" x="93.54399434711996" y="3" font-family="sans-serif">ACTED_IN</text></g><g class="relationship" transform="translate(-309.28587801621285 90.1271948677278) rotate(327.5205284393809)"><path class="outline" fill="#A5ABB6" stroke="none" d="M 25 0.5 L 43.2688072901432 0.5 L 43.2688072901432 -0.5 L 25 -0.5 Z M 88.8313072901432 0.5 L 107.1001145802864 0.5 L 107.1001145802864 3.5 L 114.1001145802864 0 L 107.1001145802864 -3.5 L 107.1001145802864 -0.5 L 88.8313072901432 -0.5 Z"/><text text-anchor="middle" pointer-events="none" font-size="8px" fill="#000000" x="66.0500572901432" y="3" font-family="sans-serif">ACTED_IN</text></g><g class="relationship" transform="translate(-309.28587801621285 90.1271948677278) rotate(368.7930773625037)"><path class="outline" fill="#A5ABB6" stroke="none" d="M 25 0.5 L 45.119231306212484 0.5 L 45.119231306212484 -0.5 L 25 -0.5 Z M 90.68173130621248 0.5 L 110.80096261242497 0.5 L 110.80096261242497 3.5 L 117.80096261242497 0 L 110.80096261242497 -3.5 L 110.80096261242497 -0.5 L 90.68173130621248 -0.5 Z"/><text text-anchor="middle" pointer-events="none" font-size="8px" fill="#000000" x="67.90048130621248" y="3" font-family="sans-serif">ACTED_IN</text></g><g class="relationship" transform="translate(-179.40131649973188 258.9682084514635) rotate(274.37137451505777)"><path class="outline" fill="#A5ABB6" stroke="none" d="M 25 0.5 L 47.438975066058546 0.5 L 47.438975066058546 -0.5 L 25 -0.5 Z M 93.00147506605855 0.5 L 115.44045013211709 0.5 L 115.44045013211709 3.5 L 122.44045013211709 0 L 115.44045013211709 -3.5 L 115.44045013211709 -0.5 L 93.00147506605855 -0.5 Z"/><text text-anchor="middle" pointer-events="none" font-size="8px" fill="#000000" x="70.22022506605855" y="3" font-family="sans-serif">ACTED_IN</text></g></g><g class="layer nodes"><g class="node" aria-label="graph-node4" transform="translate(-30.81713461961735,19.031098649860127)"><circle class="outline" cx="0" cy="0" r="25" fill="#4C8EDA" stroke="#2870c2" stroke-width="2px"/><text class="caption" text-anchor="middle" pointer-events="none" x="0" y="0" font-size="10px" fill="#FFFFFF" font-family="sans-serif"> Hugo</text><text class="caption" text-anchor="middle" pointer-events="none" x="0" y="10" font-size="10px" fill="#FFFFFF" font-family="sans-serif"> Weavi…</text></g><g class="node" aria-label="graph-node71" transform="translate(88.22912370734203,293.21979944725996)"><circle class="outline" cx="0" cy="0" r="25" fill="#4C8EDA" stroke="#2870c2" stroke-width="2px"/><text class="caption" text-anchor="middle" pointer-events="none" x="0" y="0" font-size="10px" fill="#FFFFFF" font-family="sans-serif"> Tom</text><text class="caption" text-anchor="middle" pointer-events="none" x="0" y="10" font-size="10px" fill="#FFFFFF" font-family="sans-serif"> Hanks</text></g><g class="node" aria-label="graph-node105" transform="translate(92.93092062128773,146.18790755533982)"><circle class="outline" cx="0" cy="0" r="25" fill="#F79767" stroke="#f36924" stroke-width="2px"/><text class="caption" text-anchor="middle" pointer-events="none" x="0" y="0" font-size="10px" fill="#FFFFFF" font-family="sans-serif"> Cloud</text><text class="caption" text-anchor="middle" pointer-events="none" x="0" y="10" font-size="10px" fill="#FFFFFF" font-family="sans-serif"> Atlas</text></g><g class="node" aria-label="graph-node107" transform="translate(211.06046189676047,234.74583995313492)"><circle class="outline" cx="0" cy="0" r="25" fill="#4C8EDA" stroke="#2870c2" stroke-width="2px"/><text class="caption" text-anchor="middle" pointer-events="none" x="0" y="0" font-size="10px" fill="#FFFFFF" font-family="sans-serif"> Jim</text><text class="caption" text-anchor="middle" pointer-events="none" x="0" y="10" font-size="10px" fill="#FFFFFF" font-family="sans-serif"> Broad…</text></g><g class="node" aria-label="graph-node106" transform="translate(236.7619221542357,115.24222596471489)"><circle class="outline" cx="0" cy="0" r="25" fill="#4C8EDA" stroke="#2870c2" stroke-width="2px"/><text class="caption" text-anchor="middle" pointer-events="none" x="0" y="0" font-size="10px" fill="#FFFFFF" font-family="sans-serif"> Halle</text><text class="caption" text-anchor="middle" pointer-events="none" x="0" y="10" font-size="10px" fill="#FFFFFF" font-family="sans-serif"> Berry</text></g><g class="node" aria-label="graph-node119" transform="translate(252.5728330531633,-89.60973004189918)"><circle class="outline" cx="0" cy="0" r="25" fill="#4C8EDA" stroke="#2870c2" stroke-width="2px"/><text class="caption" text-anchor="middle" pointer-events="none" x="0" y="5" font-size="10px" fill="#FFFFFF" font-family="sans-serif"> John Hurt</text></g><g class="node" aria-label="graph-node116" transform="translate(105.74941241332645,-108.29132227763722)"><circle class="outline" cx="0" cy="0" r="25" fill="#F79767" stroke="#f36924" stroke-width="2px"/><text class="caption" text-anchor="middle" pointer-events="none" x="0" y="0" font-size="10px" fill="#FFFFFF" font-family="sans-serif"> V for</text><text class="caption" text-anchor="middle" pointer-events="none" x="0" y="10" font-size="10px" fill="#FFFFFF" font-family="sans-serif"> Vende…</text></g><g class="node" aria-label="graph-node118" transform="translate(220.49276175964167,-202.5714387495868)"><circle class="outline" cx="0" cy="0" r="25" fill="#4C8EDA" stroke="#2870c2" stroke-width="2px"/><text class="caption" text-anchor="middle" pointer-events="none" x="0" y="0" font-size="10px" fill="#FFFFFF" font-family="sans-serif"> Stephen</text><text class="caption" text-anchor="middle" pointer-events="none" x="0" y="10" font-size="10px" fill="#FFFFFF" font-family="sans-serif"> Rea</text></g><g class="node" aria-label="graph-node117" transform="translate(120.07814654923749,-256.29797013737044)"><circle class="outline" cx="0" cy="0" r="25" fill="#4C8EDA" stroke="#2870c2" stroke-width="2px"/><text class="caption" text-anchor="middle" pointer-events="none" x="0" y="0" font-size="10px" fill="#FFFFFF" font-family="sans-serif"> Natalie</text><text class="caption" text-anchor="middle" pointer-events="none" x="0" y="10" font-size="10px" fill="#FFFFFF" font-family="sans-serif"> Portm…</text></g><g class="node" aria-label="graph-node120" transform="translate(15.948406359569784,-225.78431282637717)"><circle class="outline" cx="0" cy="0" r="25" fill="#4C8EDA" stroke="#2870c2" stroke-width="2px"/><text class="caption" text-anchor="middle" pointer-events="none" x="0" y="5" font-size="10px" fill="#FFFFFF" font-family="sans-serif"> Ben Miles</text></g><g class="node" aria-label="graph-node3" transform="translate(-91.35982674929002,-59.825485088519315)"><circle class="outline" cx="0" cy="0" r="25" fill="#4C8EDA" stroke="#2870c2" stroke-width="2px"/><text class="caption" text-anchor="middle" pointer-events="none" x="0" y="0" font-size="10px" fill="#FFFFFF" font-family="sans-serif"> Laurence</text><text class="caption" text-anchor="middle" pointer-events="none" x="0" y="10" font-size="10px" fill="#FFFFFF" font-family="sans-serif"> Fishb…</text></g><g class="node" aria-label="graph-node10" transform="translate(-217.1382739221057,-80.69132407881703)"><circle class="outline" cx="0" cy="0" r="25" fill="#F79767" stroke="#f36924" stroke-width="2px"/><text class="caption" text-anchor="middle" pointer-events="none" x="0" y="-5" font-size="10px" fill="#FFFFFF" font-family="sans-serif"> The</text><text class="caption" text-anchor="middle" pointer-events="none" x="0" y="5" font-size="10px" fill="#FFFFFF" font-family="sans-serif"> Matrix</text><text class="caption" text-anchor="middle" pointer-events="none" x="0" y="15" font-size="10px" fill="#FFFFFF" font-family="sans-serif"> Rev…</text></g><g class="node" aria-label="graph-node2" transform="translate(-326.89250528663405,-7.449321803972138)"><circle class="outline" cx="0" cy="0" r="25" fill="#4C8EDA" stroke="#2870c2" stroke-width="2px"/><text class="caption" text-anchor="middle" pointer-events="none" x="0" y="5" font-size="10px" fill="#FFFFFF" font-family="sans-serif"> Carrie-A…</text></g><g class="node" aria-label="graph-node1" transform="translate(-309.28587801621285,90.1271948677278)"><circle class="outline" cx="0" cy="0" r="25" fill="#4C8EDA" stroke="#2870c2" stroke-width="2px"/><text class="caption" text-anchor="middle" pointer-events="none" x="0" y="0" font-size="10px" fill="#FFFFFF" font-family="sans-serif"> Keanu</text><text class="caption" text-anchor="middle" pointer-events="none" x="0" y="10" font-size="10px" fill="#FFFFFF" font-family="sans-serif"> Reeves</text></g><g class="node" aria-label="graph-node9" transform="translate(-191.94326084891662,15.430795539660012)"><circle class="outline" cx="0" cy="0" r="25" fill="#F79767" stroke="#f36924" stroke-width="2px"/><text class="caption" text-anchor="middle" pointer-events="none" x="0" y="-5" font-size="10px" fill="#FFFFFF" font-family="sans-serif"> The</text><text class="caption" text-anchor="middle" pointer-events="none" x="0" y="5" font-size="10px" fill="#FFFFFF" font-family="sans-serif"> Matrix</text><text class="caption" text-anchor="middle" pointer-events="none" x="0" y="15" font-size="10px" fill="#FFFFFF" font-family="sans-serif"> Rel…</text></g><g class="node" aria-label="graph-node8" transform="translate(-179.40131649973188,258.9682084514635)"><circle class="outline" cx="0" cy="0" r="25" fill="#4C8EDA" stroke="#2870c2" stroke-width="2px"/><text class="caption" text-anchor="middle" pointer-events="none" x="0" y="0" font-size="10px" fill="#FFFFFF" font-family="sans-serif"> Emil</text><text class="caption" text-anchor="middle" pointer-events="none" x="0" y="10" font-size="10px" fill="#FFFFFF" font-family="sans-serif"> Eifrem</text></g><g class="node" aria-label="graph-node0" transform="translate(-168.1632753361188,111.95666888410082)"><circle class="outline" cx="0" cy="0" r="25" fill="#F79767" stroke="#f36924" stroke-width="2px"/><text class="caption" text-anchor="middle" pointer-events="none" x="0" y="0" font-size="10px" fill="#FFFFFF" font-family="sans-serif"> The</text><text class="caption" text-anchor="middle" pointer-events="none" x="0" y="10" font-size="10px" fill="#FFFFFF" font-family="sans-serif"> Matrix</text></g></g></svg>