<svg xmlns="http://www.w3.org/2000/svg" width="339.720458984375" height="349.3853759765625" viewBox="-142.8884735107422 -208.1057586669922 339.720458984375 349.3853759765625"><title>Neo4j Graph Visualization</title><desc>Created using Neo4j (http://www.neo4j.com/)</desc><g class="layer relationships"><g class="relationship" transform="translate(50.8063758723566 112.27964278798821) rotate(263.10430763307954)"><path class="outline" fill="#A5ABB6" stroke="none" d="M 25 0.5 L 46.686462957742336 0.5 L 46.686462957742336 -0.5 L 25 -0.5 Z M 93.57708795774234 0.5 L 115.26355091548467 0.5 L 115.26355091548467 3.5 L 122.26355091548467 0 L 115.26355091548467 -3.5 L 115.26355091548467 -0.5 L 93.57708795774234 -0.5 Z"/><text text-anchor="middle" pointer-events="none" font-size="8px" fill="#000000" x="70.13177545774234" y="3" transform="rotate(180 70.13177545774234 0)" font-family="sans-serif">DIRECTED</text></g><g class="relationship" transform="translate(156.9466120100929 45.07114109550479) rotate(212.53524036094103)"><path class="outline" fill="#A5ABB6" stroke="none" d="M 25 0.5 L 47.15415346367574 0.5 L 47.15415346367574 -0.5 L 25 -0.5 Z M 92.71665346367574 0.5 L 114.87080692735148 0.5 L 114.87080692735148 3.5 L 121.87080692735148 0 L 114.87080692735148 -3.5 L 114.87080692735148 -0.5 L 92.71665346367574 -0.5 Z"/><text text-anchor="middle" pointer-events="none" font-size="8px" fill="#000000" x="69.93540346367574" y="3" transform="rotate(180 69.93540346367574 0)" font-family="sans-serif">ACTED_IN</text></g><g class="relationship" transform="translate(167.8319906889372 -91.55641667500126) rotate(516.8350361986959)"><path class="outline" fill="#57C7E3" stroke="none" d="M 25 0.5 L 43.86905970602008 0.5 L 43.86905970602008 -0.5 L 25 -0.5 Z M 95.65030970602008 0.5 L 114.51936941204016 0.5 L 114.51936941204016 3.5 L 121.51936941204016 0 L 114.51936941204016 -3.5 L 114.51936941204016 -0.5 L 95.65030970602008 -0.5 Z"/><text text-anchor="middle" pointer-events="none" font-size="8px" fill="#000000" x="69.75968470602008" y="3" transform="rotate(180 69.75968470602008 0)" font-family="sans-serif">PRODUCED</text></g><g class="relationship" transform="translate(53.19214066765475 -179.1057634159141) rotate(457.8690911672959)"><path class="outline" fill="#A5ABB6" stroke="none" d="M 25 0.5 L 47.00238043475298 0.5 L 47.00238043475298 -0.5 L 25 -0.5 Z M 92.56488043475298 0.5 L 114.56726086950596 0.5 L 114.56726086950596 3.5 L 121.56726086950596 0 L 114.56726086950596 -3.5 L 114.56726086950596 -0.5 L 92.56488043475298 -0.5 Z"/><text text-anchor="middle" pointer-events="none" font-size="8px" fill="#000000" x="69.78363043475298" y="3" transform="rotate(180 69.78363043475298 0)" font-family="sans-serif">ACTED_IN</text></g><g class="relationship" transform="translate(-71.97931038833984 -136.63379202986445) rotate(404.34117275487097)"><path class="outline" fill="#A5ABB6" stroke="none" d="M 25 0.5 L 47.19908539850947 0.5 L 47.19908539850947 -0.5 L 25 -0.5 Z M 92.76158539850947 0.5 L 114.96067079701893 0.5 L 114.96067079701893 3.5 L 121.96067079701893 0 L 114.96067079701893 -3.5 L 114.96067079701893 -0.5 L 92.76158539850947 -0.5 Z"/><text text-anchor="middle" pointer-events="none" font-size="8px" fill="#000000" x="69.98033539850947" y="3" font-family="sans-serif">ACTED_IN</text></g><g class="relationship" transform="translate(-113.88847244026911 -24.157626554903263) rotate(356.20140909844804)"><path class="outline" fill="#57C7E3" stroke="none" d="M 25 0.5 L 44.278249463828416 0.5 L 44.278249463828416 -0.5 L 25 -0.5 Z M 96.05949946382842 0.5 L 115.33774892765683 0.5 L 115.33774892765683 3.5 L 122.33774892765683 0 L 115.33774892765683 -3.5 L 115.33774892765683 -0.5 L 96.05949946382842 -0.5 Z"/><text text-anchor="middle" pointer-events="none" font-size="8px" fill="#000000" x="70.16887446382842" y="3" font-family="sans-serif">PRODUCED</text></g><g class="relationship" transform="translate(-61.571283486530476 79.133488028379) rotate(309.9508505338335)"><path class="outline" fill="#57C7E3" stroke="none" d="M 25 0.5 L 44.3458747970748 0.5 L 44.3458747970748 -0.5 L 25 -0.5 Z M 96.1271247970748 0.5 L 115.4729995941496 0.5 L 115.4729995941496 3.5 L 122.4729995941496 0 L 115.4729995941496 -3.5 L 115.4729995941496 -0.5 L 96.1271247970748 -0.5 Z"/><text text-anchor="middle" pointer-events="none" font-size="8px" fill="#000000" x="70.2364997970748" y="3" font-family="sans-serif">PRODUCED</text></g></g><g class="layer nodes"><g class="node" aria-label="graph-node181" transform="translate(50.8063758723566,112.27964278798821)"><circle class="outline" cx="0" cy="0" r="25" fill="#4C8EDA" stroke="#2870c2" stroke-width="2px"/><text class="caption" text-anchor="middle" pointer-events="none" x="0" y="0" font-size="10px" fill="#FFFFFF" font-family="sans-serif"> Joe</text><text class="caption" text-anchor="middle" pointer-events="none" x="0" y="10" font-size="10px" fill="#FFFFFF" font-family="sans-serif"> Johnst…</text></g><g class="node" aria-label="graph-node186" transform="translate(156.9466120100929,45.07114109550479)"><circle class="outline" cx="0" cy="0" r="25" fill="#4C8EDA" stroke="#2870c2" stroke-width="2px"/><text class="caption" text-anchor="middle" pointer-events="none" x="0" y="0" font-size="10px" fill="#FFFFFF" font-family="sans-serif"> Samuel L.</text><text class="caption" text-anchor="middle" pointer-events="none" x="0" y="10" font-size="10px" fill="#FFFFFF" font-family="sans-serif"> Jackson</text></g><g class="node" aria-label="graph-node182" transform="translate(167.8319906889372,-91.55641667500126)"><circle class="outline" cx="0" cy="0" r="25" fill="#4C8EDA" stroke="#2870c2" stroke-width="2px"/><text class="caption" text-anchor="middle" pointer-events="none" x="0" y="5" font-size="10px" fill="#FFFFFF" font-family="sans-serif"> Christop…</text></g><g class="node" aria-label="graph-node180" transform="translate(33.12558987608178,-33.918658278718716)"><circle class="outline" cx="0" cy="0" r="25" fill="#F79767" stroke="#f36924" stroke-width="2px"/><text class="caption" text-anchor="middle" pointer-events="none" x="0" y="-5" font-size="10px" fill="#FFFFFF" font-family="sans-serif"> Captain</text><text class="caption" text-anchor="middle" pointer-events="none" x="0" y="5" font-size="10px" fill="#FFFFFF" font-family="sans-serif"> America:</text><text class="caption" text-anchor="middle" pointer-events="none" x="0" y="15" font-size="10px" fill="#FFFFFF" font-family="sans-serif"> Th</text></g><g class="node" aria-label="graph-node4" transform="translate(53.19214066765475,-179.1057634159141)"><circle class="outline" cx="0" cy="0" r="25" fill="#4C8EDA" stroke="#2870c2" stroke-width="2px"/><text class="caption" text-anchor="middle" pointer-events="none" x="0" y="0" font-size="10px" fill="#FFFFFF" font-family="sans-serif"> Hugo</text><text class="caption" text-anchor="middle" pointer-events="none" x="0" y="10" font-size="10px" fill="#FFFFFF" font-family="sans-serif"> Weavi…</text></g><g class="node" aria-label="graph-node185" transform="translate(-71.97931038833984,-136.63379202986445)"><circle class="outline" cx="0" cy="0" r="25" fill="#4C8EDA" stroke="#2870c2" stroke-width="2px"/><text class="caption" text-anchor="middle" pointer-events="none" x="0" y="0" font-size="10px" fill="#FFFFFF" font-family="sans-serif"> Chris</text><text class="caption" text-anchor="middle" pointer-events="none" x="0" y="10" font-size="10px" fill="#FFFFFF" font-family="sans-serif"> Evans</text></g><g class="node" aria-label="graph-node183" transform="translate(-113.88847244026911,-24.157626554903263)"><circle class="outline" cx="0" cy="0" r="25" fill="#4C8EDA" stroke="#2870c2" stroke-width="2px"/><text class="caption" text-anchor="middle" pointer-events="none" x="0" y="0" font-size="10px" fill="#FFFFFF" font-family="sans-serif"> Stephen</text><text class="caption" text-anchor="middle" pointer-events="none" x="0" y="10" font-size="10px" fill="#FFFFFF" font-family="sans-serif"> McFe…</text></g><g class="node" aria-label="graph-node184" transform="translate(-61.571283486530476,79.133488028379)"><circle class="outline" cx="0" cy="0" r="25" fill="#4C8EDA" stroke="#2870c2" stroke-width="2px"/><text class="caption" text-anchor="middle" pointer-events="none" x="0" y="0" font-size="10px" fill="#FFFFFF" font-family="sans-serif"> Joe</text><text class="caption" text-anchor="middle" pointer-events="none" x="0" y="10" font-size="10px" fill="#FFFFFF" font-family="sans-serif"> Simon</text></g></g></svg>