<svg xmlns="http://www.w3.org/2000/svg" width="428.8822021484375" height="443.97076416015625" viewBox="-216.3959197998047 -220.6409912109375 428.8822021484375 443.97076416015625"><title>Neo4j Graph Visualization</title><desc>Created using Neo4j (http://www.neo4j.com/)</desc><g class="layer relationships"><g class="relationship" transform="translate(26.80856664785395 194.32974733015962) rotate(333.13690496764843)"><path class="outline" fill="#57C7E3" stroke="none" d="M 21.40063509461097,12.933012701892217 L 21.90063509461097,12.06698729810778 A 95.79830814871185 95.79830814871185 0 0 0 42.1831543163686,20.834551091074417 L 41.89487537505653,21.792097566184623 A 96.79830814871185 96.79830814871185 0 0 1 21.40063509461097,12.933012701892217 Z M 93.30588899892737,23.004101285556118 L 93.06305314487662,22.03403389202748 A 95.79830814871185 95.79830814871185 0 0 0 113.73619731880875,14.23199115896568 L 112.36029385039976,11.566116134584357 L 120.18588962043333,11.465862236741597 L 115.5707352766874,17.78649119147411 L 114.19483180827841,15.120616167092788 A 96.79830814871185 96.79830814871185 0 0 1 93.30588899892737,23.004101285556118"/><text text-anchor="middle" pointer-events="none" font-size="8px" fill="#000000" x="67.53020761719341" y="28.374778215134327" font-family="sans-serif">PRODUCED</text></g><g class="relationship" transform="translate(26.80856664785395 194.32974733015962) rotate(333.13690496764843)"><path class="outline" fill="#A5ABB6" stroke="none" d="M 25 0.5 L 44.25544491180554 0.5 L 44.25544491180554 -0.5 L 25 -0.5 Z M 91.14606991180554 0.5 L 110.40151482361108 0.5 L 110.40151482361108 3.5 L 117.40151482361108 0 L 110.40151482361108 -3.5 L 110.40151482361108 -0.5 L 91.14606991180554 -0.5 Z"/><text text-anchor="middle" pointer-events="none" font-size="8px" fill="#000000" x="67.70075741180554" y="3" font-family="sans-serif">DIRECTED</text></g><g class="relationship" transform="translate(26.80856664785395 194.32974733015962) rotate(333.13690496764843)"><path class="outline" fill="#A5ABB6" stroke="none" d="M 21.40063509461097,-12.933012701892217 L 21.90063509461097,-12.06698729810778 A 95.79830814871185 95.79830814871185 0 0 1 49.89403364983851,-22.81061841015287 L 49.68624547587381,-23.788792257053515 A 96.79830814871185 96.79830814871185 0 0 0 21.40063509461097,-12.933012701892217 Z M 85.42908350359644,-24.631422066833778 L 85.26762102936995,-23.64454321438194 A 95.79830814871185 95.79830814871185 0 0 1 113.73619731880875,-14.23199115896568 L 112.36029385039976,-11.566116134584357 L 120.18588962043333,-11.465862236741597 L 115.5707352766874,-17.78649119147411 L 114.19483180827841,-15.120616167092788 A 96.79830814871185 96.79830814871185 0 0 0 85.42908350359644,-24.631422066833778"/><text text-anchor="middle" pointer-events="none" font-size="8px" fill="#000000" x="67.5302076171934" y="-22.374778215134327" font-family="sans-serif">WROTE</text></g><g class="relationship" transform="translate(183.4862471382143 -77.76416356148994) rotate(220.75514546302213)"><path class="outline" fill="#A5ABB6" stroke="none" d="M 24.018736134675446,6.953439040707552 L 24.277555179777966,5.987513214418485 A 175.11113008088728 175.11113008088728 0 0 0 44.17883080274322,10.099289473077278 L 44.03366116195768,11.088696252614483 A 176.11113008088728 176.11113008088728 0 0 1 24.018736134675446,6.953439040707552 Z M 90.9147474517741,11.659616204761022 L 90.79371536943015,10.66696760881004 A 175.11113008088728 175.11113008088728 0 0 0 110.78922089758447,7.041056123949068 L 110.08356209295414,4.125229371302796 L 117.71042645453082,5.880490038586027 L 111.73009930375824,10.928825127477431 L 111.0244404991279,8.01299837483116 A 176.11113008088728 176.11113008088728 0 0 1 90.9147474517741,11.659616204761022"/><text text-anchor="middle" pointer-events="none" font-size="8px" fill="#000000" x="67.461209072837" y="15.441259743943448" transform="rotate(180 67.461209072837 12.441259743943448)" font-family="sans-serif">DIRECTED</text></g><g class="relationship" transform="translate(183.4862471382143 -77.76416356148994) rotate(220.75514546302213)"><path class="outline" fill="#A5ABB6" stroke="none" d="M 24.018736134675446,-6.953439040707552 L 24.277555179777966,-5.987513214418485 A 175.11113008088728 175.11113008088728 0 0 1 49.674700204449024,-10.817010958748682 L 49.560915601263126,-11.81051640114839 A 176.11113008088728 176.11113008088728 0 0 0 24.018736134675446,-6.953439040707552 Z M 85.3715540969515,-12.246619948107707 L 85.2819975570805,-11.250638208231749 A 175.11113008088728 175.11113008088728 0 0 1 110.78922089758447,-7.041056123949068 L 110.08356209295414,-4.125229371302796 L 117.71042645453082,-5.880490038586027 L 111.73009930375824,-10.928825127477431 L 111.0244404991279,-8.01299837483116 A 176.11113008088728 176.11113008088728 0 0 0 85.3715540969515,-12.246619948107707"/><text text-anchor="middle" pointer-events="none" font-size="8px" fill="#000000" x="67.46120907283694" y="-9.441259743943448" transform="rotate(180 67.46120907283694 -12.441259743943448)" font-family="sans-serif">WROTE</text></g><g class="relationship" transform="translate(-64.25348701981997 -191.64099736880172) rotate(368.5884722750986)"><path class="outline" fill="#A5ABB6" stroke="none" d="M 24.018736134675446,6.953439040707552 L 24.277555179777966,5.987513214418485 A 174.6139435389873 174.6139435389873 0 0 0 44.05326622405882,10.077468259668194 L 43.90770108436315,11.06681692930161 A 175.6139435389873 175.6139435389873 0 0 1 24.018736134675446,6.953439040707552 Z M 90.7883605568303,11.638701777481629 L 90.6669727511748,10.646096619003117 A 174.6139435389873 174.6139435389873 0 0 0 110.53656878350512,7.039764258964871 L 109.83103063500877,4.123908308987858 L 117.45782235820087,5.879484570802894 L 111.47728631483358,10.927572192267554 L 110.77174816633723,8.011716242290541 A 175.6139435389873 175.6139435389873 0 0 1 90.7883605568303,11.638701777481629"/><text text-anchor="middle" pointer-events="none" font-size="8px" fill="#000000" x="67.33495924076837" y="15.424311230749737" font-family="sans-serif">DIRECTED</text></g><g class="relationship" transform="translate(-64.25348701981997 -191.64099736880172) rotate(368.5884722750986)"><path class="outline" fill="#A5ABB6" stroke="none" d="M 24.018736134675446,-6.953439040707552 L 24.277555179777966,-5.987513214418485 A 174.6139435389873 174.6139435389873 0 0 1 49.54883476774605,-10.797133686810866 L 49.43474230676266,-11.79060382241974 A 175.6139435389873 175.6139435389873 0 0 0 24.018736134675446,-6.953439040707552 Z M 85.24530809381318,-12.22744750612253 L 85.15548413981611,-11.231489847741244 A 174.6139435389873 174.6139435389873 0 0 1 110.53656878350512,-7.039764258964871 L 109.83103063500877,-4.123908308987858 L 117.45782235820087,-5.879484570802894 L 111.47728631483358,-10.927572192267554 L 110.77174816633723,-8.011716242290541 A 175.6139435389873 175.6139435389873 0 0 0 85.24530809381318,-12.22744750612253"/><text text-anchor="middle" pointer-events="none" font-size="8px" fill="#000000" x="67.33495924076838" y="-9.424311230749737" font-family="sans-serif">WROTE</text></g><g class="relationship" transform="translate(-187.02129155471923 -23.33445703919213) rotate(438.9963752169305)"><path class="outline" fill="#A5ABB6" stroke="none" d="M 21.40063509461097,12.933012701892217 L 21.90063509461097,12.06698729810778 A 95.46505885911922 95.46505885911922 0 0 0 49.731573005601504,22.75939645555738 L 49.52310310303811,23.737425238224446 A 96.46505885911922 96.46505885911922 0 0 1 21.40063509461097,12.933012701892217 Z M 85.26510522217968,24.581894220418334 L 85.10305752446524,23.595111294104015 A 95.46505885911922 95.46505885911922 0 0 0 113.4079137386339,14.229011076245907 L 112.03228741825222,11.562993029294015 L 119.85789356825191,11.463552669847317 L 115.24208216580945,17.783701805515093 L 113.86645584542778,15.117683758563203 A 96.46505885911922 96.46505885911922 0 0 1 85.26510522217968,24.581894220418334"/><text text-anchor="middle" pointer-events="none" font-size="8px" fill="#000000" x="67.36645026414214" y="28.33010615002182" font-family="sans-serif">WROTE</text></g><g class="relationship" transform="translate(-187.02129155471923 -23.33445703919213) rotate(438.9963752169305)"><path class="outline" fill="#A5ABB6" stroke="none" d="M 25 0.5 L 44.092042813092206 0.5 L 44.092042813092206 -0.5 L 25 -0.5 Z M 90.9826678130922 0.5 L 110.07471062618441 0.5 L 110.07471062618441 3.5 L 117.07471062618441 0 L 110.07471062618441 -3.5 L 110.07471062618441 -0.5 L 90.9826678130922 -0.5 Z"/><text text-anchor="middle" pointer-events="none" font-size="8px" fill="#000000" x="67.5373553130922" y="3" font-family="sans-serif">DIRECTED</text></g><g class="relationship" transform="translate(-187.02129155471923 -23.33445703919213) rotate(438.9963752169305)"><path class="outline" fill="#57C7E3" stroke="none" d="M 21.40063509461097,-12.933012701892217 L 21.90063509461097,-12.06698729810778 A 95.46505885911922 95.46505885911922 0 0 1 42.022514044641326,-20.776882530397003 L 41.73329146614509,-21.73414440683834 A 96.46505885911922 96.46505885911922 0 0 0 21.40063509461097,-12.933012701892217 Z M 93.14083416912392,-22.948739916031244 L 92.89714313816437,-21.978886998610335 A 95.46505885911922 95.46505885911922 0 0 1 113.4079137386339,-14.229011076245907 L 112.03228741825222,-11.562993029294015 L 119.85789356825191,-11.463552669847317 L 115.24208216580945,-17.783701805515093 L 113.86645584542778,-15.117683758563203 A 96.46505885911922 96.46505885911922 0 0 0 93.14083416912392,-22.948739916031244"/><text text-anchor="middle" pointer-events="none" font-size="8px" fill="#000000" x="67.36645026414216" y="-22.33010615002182" font-family="sans-serif">PRODUCED</text></g></g><g class="layer nodes"><g class="node" aria-label="graph-node45" transform="translate(26.80856664785395,194.32974733015962)"><circle class="outline" cx="0" cy="0" r="25" fill="#4C8EDA" stroke="#2870c2" stroke-width="2px"/><text class="caption" text-anchor="middle" pointer-events="none" x="0" y="0" font-size="10px" fill="#FFFFFF" font-family="sans-serif"> Cameron</text><text class="caption" text-anchor="middle" pointer-events="none" x="0" y="10" font-size="10px" fill="#FFFFFF" font-family="sans-serif"> Crowe</text></g><g class="node" aria-label="graph-node37" transform="translate(153.84335796387245,129.98417079723265)"><circle class="outline" cx="0" cy="0" r="25" fill="#F79767" stroke="#f36924" stroke-width="2px"/><text class="caption" text-anchor="middle" pointer-events="none" x="0" y="0" font-size="10px" fill="#FFFFFF" font-family="sans-serif"> Jerry</text><text class="caption" text-anchor="middle" pointer-events="none" x="0" y="10" font-size="10px" fill="#FFFFFF" font-family="sans-serif"> Maguire</text></g><g class="node" aria-label="graph-node6" transform="translate(183.4862471382143,-77.76416356148994)"><circle class="outline" cx="0" cy="0" r="25" fill="#4C8EDA" stroke="#2870c2" stroke-width="2px"/><text class="caption" text-anchor="middle" pointer-events="none" x="0" y="0" font-size="10px" fill="#FFFFFF" font-family="sans-serif"> Lana</text><text class="caption" text-anchor="middle" pointer-events="none" x="0" y="10" font-size="10px" fill="#FFFFFF" font-family="sans-serif"> Wach…</text></g><g class="node" aria-label="graph-node121" transform="translate(75.91353953680701,-170.47157294359437)"><circle class="outline" cx="0" cy="0" r="25" fill="#F79767" stroke="#f36924" stroke-width="2px"/><text class="caption" text-anchor="middle" pointer-events="none" x="0" y="0" font-size="10px" fill="#FFFFFF" font-family="sans-serif"> Speed</text><text class="caption" text-anchor="middle" pointer-events="none" x="0" y="10" font-size="10px" fill="#FFFFFF" font-family="sans-serif"> Racer</text></g><g class="node" aria-label="graph-node5" transform="translate(-64.25348701981997,-191.64099736880172)"><circle class="outline" cx="0" cy="0" r="25" fill="#4C8EDA" stroke="#2870c2" stroke-width="2px"/><text class="caption" text-anchor="middle" pointer-events="none" x="0" y="0" font-size="10px" fill="#FFFFFF" font-family="sans-serif"> Lilly</text><text class="caption" text-anchor="middle" pointer-events="none" x="0" y="10" font-size="10px" fill="#FFFFFF" font-family="sans-serif"> Wach…</text></g><g class="node" aria-label="graph-node156" transform="translate(-187.02129155471923,-23.33445703919213)"><circle class="outline" cx="0" cy="0" r="25" fill="#4C8EDA" stroke="#2870c2" stroke-width="2px"/><text class="caption" text-anchor="middle" pointer-events="none" x="0" y="0" font-size="10px" fill="#FFFFFF" font-family="sans-serif"> Nancy</text><text class="caption" text-anchor="middle" pointer-events="none" x="0" y="10" font-size="10px" fill="#FFFFFF" font-family="sans-serif"> Meyers</text></g><g class="node" aria-label="graph-node154" transform="translate(-159.90333567462423,116.12822566983675)"><circle class="outline" cx="0" cy="0" r="25" fill="#F79767" stroke="#f36924" stroke-width="2px"/><text class="caption" text-anchor="middle" pointer-events="none" x="0" y="5" font-size="10px" fill="#FFFFFF" font-family="sans-serif"> Somethi…</text></g></g></svg>