<svg xmlns="http://www.w3.org/2000/svg" width="548.9249877929688" height="80.84115600585938" viewBox="-494.4868469238281 -50.2799072265625 548.9249877929688 80.84115600585938"><title>Neo4j Graph Visualization</title><desc>Created using Neo4j (http://www.neo4j.com/)</desc><g class="layer relationships"><g class="relationship" transform="translate(-465.4868421919962 -12.150411054227064) rotate(361.46004774898495)"><path class="outline" fill="#A5ABB6" stroke="none" d="M 21.40063509461097,12.933012701892217 L 21.90063509461097,12.06698729810778 A 134.53872043119557 134.53872043119557 0 0 0 56.23417515524615,25.998041525502842 L 55.989369644613944,26.96761373115031 A 135.53872043119557 135.53872043119557 0 0 1 21.40063509461097,12.933012701892217 Z M 117.39953080597923,28.119391042383725 L 117.19125426768846,27.141321063497955 A 134.53872043119557 134.53872043119557 0 0 0 152.02303150650144,14.507495856239023 L 150.6215085249795,11.855000176267836 L 158.44577525668788,11.679358179349652 L 153.89172881519738,18.04415676286727 L 152.49020583367545,15.391661082896084 A 135.53872043119557 135.53872043119557 0 0 1 117.39953080597923,28.119391042383725"/><text text-anchor="middle" pointer-events="none" font-size="8px" fill="#000000" x="86.63772406137845" y="33.5680131444487" font-family="sans-serif">PublicTransport</text></g><g class="relationship" transform="translate(-284.9955544883628 -7.55002064365048) rotate(361.4134603571896)"><path class="outline" fill="#A5ABB6" stroke="none" d="M 25 0.5 L 69.31099784573503 0.5 L 69.31099784573503 -0.5 L 25 -0.5 Z M 88.64693534573503 0.5 L 132.95793319147006 0.5 L 132.95793319147006 3.5 L 139.95793319147006 0 L 132.95793319147006 -3.5 L 132.95793319147006 -0.5 L 88.64693534573503 -0.5 Z"/><text text-anchor="middle" pointer-events="none" font-size="8px" fill="#000000" x="78.97896659573503" y="3" font-family="sans-serif">trek</text></g><g class="relationship" transform="translate(-120.08781430054125 -3.4809975486748033) rotate(361.5917738066472)"><path class="outline" fill="#A5ABB6" stroke="none" d="M 25 0.5 L 59.62309982365022 0.5 L 59.62309982365022 -0.5 L 25 -0.5 Z M 78.95903732365022 0.5 L 113.58213714730044 0.5 L 113.58213714730044 3.5 L 120.58213714730044 0 L 113.58213714730044 -3.5 L 113.58213714730044 -0.5 L 78.95903732365022 -0.5 Z"/><text text-anchor="middle" pointer-events="none" font-size="8px" fill="#000000" x="69.29106857365022" y="3" font-family="sans-serif">trek</text></g><g class="relationship" transform="translate(-465.4868421919962 -12.150411054227064) rotate(361.46004774898495)"><path class="outline" fill="#A5ABB6" stroke="none" d="M 25 0.5 L 75.76909358655722 0.5 L 75.76909358655722 -0.5 L 25 -0.5 Z M 97.78081233655722 0.5 L 148.54990592311444 0.5 L 148.54990592311444 3.5 L 155.54990592311444 0 L 148.54990592311444 -3.5 L 148.54990592311444 -0.5 L 97.78081233655722 -0.5 Z"/><text text-anchor="middle" pointer-events="none" font-size="8px" fill="#000000" x="86.77495296155722" y="3" font-family="sans-serif">road</text></g><g class="relationship" transform="translate(-465.4868421919962 -12.150411054227064) rotate(361.46004774898495)"><path class="outline" fill="#A5ABB6" stroke="none" d="M 21.40063509461097,-12.933012701892217 L 21.90063509461097,-12.06698729810778 A 134.53872043119557 134.53872043119557 0 0 1 77.03131023954141,-29.54303582093071 L 76.94108576712364,-30.538957275954616 A 135.53872043119557 135.53872043119557 0 0 0 21.40063509461097,-12.933012701892217 Z M 96.32863234723415,-30.90258010073073 L 96.27581617031989,-29.903975849059336 A 134.53872043119557 134.53872043119557 0 0 1 152.02303150650144,-14.507495856239023 L 150.6215085249795,-11.855000176267836 L 158.44577525668788,-11.679358179349652 L 153.89172881519738,-18.04415676286727 L 152.49020583367545,-15.391661082896084 A 135.53872043119557 135.53872043119557 0 0 0 96.32863234723415,-30.90258010073073"/><text text-anchor="middle" pointer-events="none" font-size="8px" fill="#000000" x="86.63772406137844" y="-27.5680131444487" font-family="sans-serif">trek</text></g></g><g class="layer nodes"><g class="node" aria-label="graph-node196" transform="translate(-465.4868421919962,-12.150411054227064)"><circle class="outline" cx="0" cy="0" r="25" fill="#D9C8AE" stroke="#c0a378" stroke-width="2px"/><text class="caption" text-anchor="middle" pointer-events="none" x="0" y="5" font-size="10px" fill="#2A2C34" font-family="sans-serif"> Darjeeling</text></g><g class="node" aria-label="graph-node198" transform="translate(25.43814467462056,0.5630005639499691)"><circle class="outline" cx="0" cy="0" r="25" fill="#F16667" stroke="#eb2728" stroke-width="2px"/><text class="caption" text-anchor="middle" pointer-events="none" x="0" y="5" font-size="10px" fill="#FFFFFF" font-family="sans-serif"> Sandakp…</text></g><g class="node" aria-label="graph-node187" transform="translate(-284.9955544883628,-7.55002064365048)"><circle class="outline" cx="0" cy="0" r="25" fill="#D9C8AE" stroke="#c0a378" stroke-width="2px"/><text class="caption" text-anchor="middle" pointer-events="none" x="0" y="5" font-size="10px" fill="#2A2C34" font-family="sans-serif"> Rimbik</text></g><g class="node" aria-label="graph-node197" transform="translate(-120.08781430054125,-3.4809975486748033)"><circle class="outline" cx="0" cy="0" r="25" fill="#8DCC93" stroke="#5db665" stroke-width="2px"/><text class="caption" text-anchor="middle" pointer-events="none" x="0" y="5" font-size="10px" fill="#2A2C34" font-family="sans-serif"> BhikeBh…</text></g></g></svg>