<svg xmlns="http://www.w3.org/2000/svg" width="513.4436645507812" height="180.69876098632812" viewBox="-418.4868469238281 -133.69244384765625 513.4436645507812 180.69876098632812"><title>Neo4j Graph Visualization</title><desc>Created using Neo4j (http://www.neo4j.com/)</desc><g class="layer relationships"><g class="relationship" transform="translate(-389.4868421919962 -102.15041105422706) rotate(374.4835286629328)"><path class="outline" fill="#A5ABB6" stroke="none" d="M 21.40063509461097,12.933012701892217 L 21.90063509461097,12.06698729810778 A 123.67796108372504 123.67796108372504 0 0 0 50.935307772965665,24.206856645552477 L 50.670068052193585,25.171039144110054 A 124.67796108372504 124.67796108372504 0 0 1 21.40063509461097,12.933012701892217 Z M 112.00074011316207,26.39144014522286 L 111.77406713719232,25.417469220623445 A 123.67796108372504 123.67796108372504 0 0 0 141.26870001758974,14.442257306368653 L 139.87324320676382,11.786565251720841 L 147.69789094690563,11.628806756882778 L 143.12930909869098,17.98318004589907 L 141.73385228786506,15.327487991251257 A 124.67796108372504 124.67796108372504 0 0 1 112.00074011316207,26.39144014522286"/><text text-anchor="middle" pointer-events="none" font-size="8px" fill="#000000" x="81.2691239771537" y="32.11211483434627" font-family="sans-serif">PublicTransport</text></g><g class="relationship" transform="translate(-225.0554103097138 -59.67597979670803) rotate(375.442167203704)"><path class="outline" fill="#A5ABB6" stroke="none" d="M 25 0.5 L 65.55117789186497 0.5 L 65.55117789186497 -0.5 L 25 -0.5 Z M 84.88711539186497 0.5 L 125.43829328372993 0.5 L 125.43829328372993 3.5 L 132.43829328372993 0 L 125.43829328372993 -3.5 L 125.43829328372993 -0.5 L 84.88711539186497 -0.5 Z"/><text text-anchor="middle" pointer-events="none" font-size="8px" fill="#000000" x="75.21914664186497" y="3" font-family="sans-serif">trek</text></g><g class="relationship" transform="translate(-73.30068579522191 -17.75558166376528) rotate(374.40256841109624)"><path class="outline" fill="#A5ABB6" stroke="none" d="M 25 0.5 L 58.72007768220621 0.5 L 58.72007768220621 -0.5 L 25 -0.5 Z M 78.05601518220621 0.5 L 111.77609286441242 0.5 L 111.77609286441242 3.5 L 118.77609286441242 0 L 111.77609286441242 -3.5 L 111.77609286441242 -0.5 L 78.05601518220621 -0.5 Z"/><text text-anchor="middle" pointer-events="none" font-size="8px" fill="#000000" x="68.38804643220621" y="3" font-family="sans-serif">trek</text></g><g class="relationship" transform="translate(-389.4868421919962 -102.15041105422706) rotate(374.4835286629328)"><path class="outline" fill="#A5ABB6" stroke="none" d="M 25 0.5 L 70.40846965948536 0.5 L 70.40846965948536 -0.5 L 25 -0.5 Z M 92.42018840948536 0.5 L 137.82865806897073 0.5 L 137.82865806897073 3.5 L 144.82865806897073 0 L 137.82865806897073 -3.5 L 137.82865806897073 -0.5 L 92.42018840948536 -0.5 Z"/><text text-anchor="middle" pointer-events="none" font-size="8px" fill="#000000" x="81.41432903448536" y="3" font-family="sans-serif">road</text></g><g class="relationship" transform="translate(-389.4868421919962 -102.15041105422706) rotate(374.4835286629328)"><path class="outline" fill="#A5ABB6" stroke="none" d="M 21.40063509461097,-12.933012701892217 L 21.90063509461097,-12.06698729810778 A 123.67796108372504 123.67796108372504 0 0 1 71.66911271855908,-28.046265074514793 L 71.57151648708705,-29.0414911672206 A 124.67796108372504 124.67796108372504 0 0 0 21.40063509461097,-12.933012701892217 Z M 90.9618643334541,-29.427333994771985 L 90.90393710530405,-28.429013186494984 A 123.67796108372504 123.67796108372504 0 0 1 141.26870001758974,-14.442257306368653 L 139.87324320676382,-11.786565251720841 L 147.69789094690563,-11.628806756882778 L 143.12930909869098,-17.98318004589907 L 141.73385228786506,-15.327487991251257 A 124.67796108372504 124.67796108372504 0 0 0 90.9618643334541,-29.427333994771985"/><text text-anchor="middle" pointer-events="none" font-size="8px" fill="#000000" x="81.26912397715367" y="-26.112114834346272" font-family="sans-serif">trek</text></g></g><g class="layer nodes"><g class="node" aria-label="graph-node196" transform="translate(-389.4868421919962,-102.15041105422706)"><circle class="outline" cx="0" cy="0" r="25" fill="#D9C8AE" stroke="#c0a378" stroke-width="2px"/><text class="caption" text-anchor="middle" pointer-events="none" x="0" y="5" font-size="10px" fill="#2A2C34" font-family="sans-serif"> Darjeeling</text></g><g class="node" aria-label="graph-node198" transform="translate(65.95681375898079,18.00632121160442)"><circle class="outline" cx="0" cy="0" r="25" fill="#F16667" stroke="#eb2728" stroke-width="2px"/><text class="caption" text-anchor="middle" pointer-events="none" x="0" y="5" font-size="10px" fill="#FFFFFF" font-family="sans-serif"> Sandakp…</text></g><g class="node" aria-label="graph-node187" transform="translate(-225.0554103097138,-59.67597979670803)"><circle class="outline" cx="0" cy="0" r="25" fill="#D9C8AE" stroke="#c0a378" stroke-width="2px"/><text class="caption" text-anchor="middle" pointer-events="none" x="0" y="5" font-size="10px" fill="#2A2C34" font-family="sans-serif"> Rimbik</text></g><g class="node" aria-label="graph-node197" transform="translate(-73.30068579522191,-17.75558166376528)"><circle class="outline" cx="0" cy="0" r="25" fill="#8DCC93" stroke="#5db665" stroke-width="2px"/><text class="caption" text-anchor="middle" pointer-events="none" x="0" y="5" font-size="10px" fill="#2A2C34" font-family="sans-serif"> BhikeBh…</text></g></g></svg>