<svg xmlns="http://www.w3.org/2000/svg" width="817.089599609375" height="739.1972045898438" viewBox="-528.7587890625 -309.18988037109375 817.089599609375 739.1972045898438"><title>Neo4j Graph Visualization</title><desc>Created using Neo4j (http://www.neo4j.com/)</desc><g class="layer relationships"><g class="relationship" transform="translate(-232.95968269711577 273.35580052963667) rotate(284.0112873906455)"><path class="outline" fill="#A5ABB6" stroke="none" d="M 25 0.5 L 96.26250934628723 0.5 L 96.26250934628723 -0.5 L 25 -0.5 Z M 130.70782184628723 0.5 L 201.97033119257446 0.5 L 201.97033119257446 3.5 L 208.97033119257446 0 L 201.97033119257446 -3.5 L 201.97033119257446 -0.5 L 130.70782184628723 -0.5 Z"/><text text-anchor="middle" pointer-events="none" font-size="8px" fill="#000000" x="113.48516559628723" y="3" font-family="sans-serif">ORIGIN</text></g><g class="relationship" transform="translate(-232.95968269711577 273.35580052963667) rotate(411.9542550177141)"><path class="outline" fill="#A5ABB6" stroke="none" d="M 25 0.5 L 47.95091102013802 0.5 L 47.95091102013802 -0.5 L 25 -0.5 Z M 107.14231727013802 0.5 L 130.09322829027604 0.5 L 130.09322829027604 3.5 L 137.09322829027604 0 L 130.09322829027604 -3.5 L 130.09322829027604 -0.5 L 107.14231727013802 -0.5 Z"/><text text-anchor="middle" pointer-events="none" font-size="8px" fill="#000000" x="77.54661414513802" y="3" font-family="sans-serif">DESTINATION</text></g><g class="relationship" transform="translate(-152.9994770569359 216.1441695830822) rotate(262.18226202262997)"><path class="outline" fill="#A5ABB6" stroke="none" d="M 25 0.5 L 64.97262793105483 0.5 L 64.97262793105483 -0.5 L 25 -0.5 Z M 99.41794043105483 0.5 L 139.39056836210966 0.5 L 139.39056836210966 3.5 L 146.39056836210966 0 L 139.39056836210966 -3.5 L 139.39056836210966 -0.5 L 99.41794043105483 -0.5 Z"/><text text-anchor="middle" pointer-events="none" font-size="8px" fill="#000000" x="82.19528418105483" y="3" transform="rotate(180 82.19528418105483 0)" font-family="sans-serif">ORIGIN</text></g><g class="relationship" transform="translate(-152.9994770569359 216.1441695830822) rotate(443.84480704693266)"><path class="outline" fill="#A5ABB6" stroke="none" d="M 25 0.5 L 59.87180411109881 0.5 L 59.87180411109881 -0.5 L 25 -0.5 Z M 119.06321036109881 0.5 L 153.93501447219762 0.5 L 153.93501447219762 3.5 L 160.93501447219762 0 L 153.93501447219762 -3.5 L 153.93501447219762 -0.5 L 119.06321036109881 -0.5 Z"/><text text-anchor="middle" pointer-events="none" font-size="8px" fill="#000000" x="89.46750723609881" y="3" font-family="sans-serif">DESTINATION</text></g><g class="relationship" transform="translate(-19.466854165907286 19.52408538671544) rotate(530.2956147625841)"><path class="outline" fill="#A5ABB6" stroke="none" d="M 25 0.5 L 58.838599976601344 0.5 L 58.838599976601344 -0.5 L 25 -0.5 Z M 93.28391247660134 0.5 L 127.12251245320269 0.5 L 127.12251245320269 3.5 L 134.1225124532027 0 L 127.12251245320269 -3.5 L 127.12251245320269 -0.5 L 93.28391247660134 -0.5 Z"/><text text-anchor="middle" pointer-events="none" font-size="8px" fill="#000000" x="76.06125622660134" y="3" transform="rotate(180 76.06125622660134 0)" font-family="sans-serif">ORIGIN</text></g><g class="relationship" transform="translate(-19.466854165907286 19.52408538671544) rotate(343.2797098682554)"><path class="outline" fill="#A5ABB6" stroke="none" d="M 25 0.5 L 56.0519574390446 0.5 L 56.0519574390446 -0.5 L 25 -0.5 Z M 115.2433636890446 0.5 L 146.2953211280892 0.5 L 146.2953211280892 3.5 L 153.2953211280892 0 L 146.2953211280892 -3.5 L 146.2953211280892 -0.5 L 115.2433636890446 -0.5 Z"/><text text-anchor="middle" pointer-events="none" font-size="8px" fill="#000000" x="85.6476605640446" y="3" font-family="sans-serif">DESTINATION</text></g><g class="relationship" transform="translate(-68.65495977457807 163.07175578628699) rotate(227.3141792445678)"><path class="outline" fill="#A5ABB6" stroke="none" d="M 25 0.5 L 58.67334920545973 0.5 L 58.67334920545973 -0.5 L 25 -0.5 Z M 93.11866170545973 0.5 L 126.79201091091946 0.5 L 126.79201091091946 3.5 L 133.79201091091946 0 L 126.79201091091946 -3.5 L 126.79201091091946 -0.5 L 93.11866170545973 -0.5 Z"/><text text-anchor="middle" pointer-events="none" font-size="8px" fill="#000000" x="75.89600545545973" y="3" transform="rotate(180 75.89600545545973 0)" font-family="sans-serif">ORIGIN</text></g><g class="relationship" transform="translate(-68.65495977457807 163.07175578628699) rotate(392.97131190297443)"><path class="outline" fill="#A5ABB6" stroke="none" d="M 25 0.5 L 73.04630127575916 0.5 L 73.04630127575916 -0.5 L 25 -0.5 Z M 132.23770752575916 0.5 L 180.28400880151833 0.5 L 180.28400880151833 3.5 L 187.28400880151833 0 L 180.28400880151833 -3.5 L 180.28400880151833 -0.5 L 132.23770752575916 -0.5 Z"/><text text-anchor="middle" pointer-events="none" font-size="8px" fill="#000000" x="102.64200440075916" y="3" font-family="sans-serif">DESTINATION</text></g><g class="relationship" transform="translate(15.862612906552583 111.87058212164632) rotate(198.82733424678577)"><path class="outline" fill="#A5ABB6" stroke="none" d="M 25 0.5 L 80.79660389869396 0.5 L 80.79660389869396 -0.5 L 25 -0.5 Z M 115.24191639869396 0.5 L 171.03852029738792 0.5 L 171.03852029738792 3.5 L 178.03852029738792 0 L 171.03852029738792 -3.5 L 171.03852029738792 -0.5 L 115.24191639869396 -0.5 Z"/><text text-anchor="middle" pointer-events="none" font-size="8px" fill="#000000" x="98.01926014869396" y="3" transform="rotate(180 98.01926014869396 0)" font-family="sans-serif">ORIGIN</text></g><g class="relationship" transform="translate(15.862612906552583 111.87058212164632) rotate(420.6968546773054)"><path class="outline" fill="#A5ABB6" stroke="none" d="M 25 0.5 L 62.501811769525574 0.5 L 62.501811769525574 -0.5 L 25 -0.5 Z M 121.69321801952557 0.5 L 159.19502978905115 0.5 L 159.19502978905115 3.5 L 166.19502978905115 0 L 159.19502978905115 -3.5 L 159.19502978905115 -0.5 L 121.69321801952557 -0.5 Z"/><text text-anchor="middle" pointer-events="none" font-size="8px" fill="#000000" x="92.09751489452557" y="3" font-family="sans-serif">DESTINATION</text></g><g class="relationship" transform="translate(18.111798764282995 208.90195785897376) rotate(219.8985325906246)"><path class="outline" fill="#A5ABB6" stroke="none" d="M 25 0.5 L 105.99063962119354 0.5 L 105.99063962119354 -0.5 L 25 -0.5 Z M 140.43595212119354 0.5 L 221.42659174238707 0.5 L 221.42659174238707 3.5 L 228.42659174238707 0 L 221.42659174238707 -3.5 L 221.42659174238707 -0.5 L 140.43595212119354 -0.5 Z"/><text text-anchor="middle" pointer-events="none" font-size="8px" fill="#000000" x="123.21329587119354" y="3" transform="rotate(180 123.21329587119354 0)" font-family="sans-serif">ORIGIN</text></g><g class="relationship" transform="translate(18.111798764282995 208.90195785897376) rotate(397.3499541377088)"><path class="outline" fill="#A5ABB6" stroke="none" d="M 25 0.5 L 26.346936352406708 0.5 L 26.346936352406708 -0.5 L 25 -0.5 Z M 81.53834260240671 0.5 L 82.88527895481342 0.5 L 82.88527895481342 3.5 L 89.88527895481342 0 L 82.88527895481342 -3.5 L 82.88527895481342 -0.5 L 81.53834260240671 -0.5 Z"/><text text-anchor="middle" pointer-events="none" font-size="8px" fill="#000000" x="53.94263947740671" y="3" font-family="sans-serif">DESTINATI…</text></g><g class="relationship" transform="translate(-65.37250313580275 261.3324831398912) rotate(242.70475770926328)"><path class="outline" fill="#A5ABB6" stroke="none" d="M 25 0.5 L 100.23872002040322 0.5 L 100.23872002040322 -0.5 L 25 -0.5 Z M 134.6840325204032 0.5 L 209.92275254080644 0.5 L 209.92275254080644 3.5 L 216.92275254080644 0 L 209.92275254080644 -3.5 L 209.92275254080644 -0.5 L 134.6840325204032 -0.5 Z"/><text text-anchor="middle" pointer-events="none" font-size="8px" fill="#000000" x="117.46137627040322" y="3" transform="rotate(180 117.46137627040322 0)" font-family="sans-serif">ORIGIN</text></g><g class="relationship" transform="translate(-65.37250313580275 261.3324831398912) rotate(365.64149515473315)"><path class="outline" fill="#A5ABB6" stroke="none" d="M 25 0.5 L 54.735591406675525 0.5 L 54.735591406675525 -0.5 L 25 -0.5 Z M 113.92699765667552 0.5 L 143.66258906335105 0.5 L 143.66258906335105 3.5 L 150.66258906335105 0 L 143.66258906335105 -3.5 L 143.66258906335105 -0.5 L 113.92699765667552 -0.5 Z"/><text text-anchor="middle" pointer-events="none" font-size="8px" fill="#000000" x="84.33129453167552" y="3" font-family="sans-serif">DESTINATION</text></g><g class="relationship" transform="translate(78.22457857056851 35.58357378652963) rotate(537.5787189754606)"><path class="outline" fill="#A5ABB6" stroke="none" d="M 25 0.5 L 106.65956604748686 0.5 L 106.65956604748686 -0.5 L 25 -0.5 Z M 141.10487854748686 0.5 L 222.76444459497372 0.5 L 222.76444459497372 3.5 L 229.76444459497372 0 L 222.76444459497372 -3.5 L 222.76444459497372 -0.5 L 141.10487854748686 -0.5 Z"/><text text-anchor="middle" pointer-events="none" font-size="8px" fill="#000000" x="123.88222229748686" y="3" transform="rotate(180 123.88222229748686 0)" font-family="sans-serif">ORIGIN</text></g><g class="relationship" transform="translate(78.22457857056851 35.58357378652963) rotate(370.1988049240649)"><path class="outline" fill="#A5ABB6" stroke="none" d="M 25 0.5 L 58.911179896565486 0.5 L 58.911179896565486 -0.5 L 25 -0.5 Z M 118.10258614656549 0.5 L 152.01376604313097 0.5 L 152.01376604313097 3.5 L 159.01376604313097 0 L 152.01376604313097 -3.5 L 152.01376604313097 -0.5 L 118.10258614656549 -0.5 Z"/><text text-anchor="middle" pointer-events="none" font-size="8px" fill="#000000" x="88.50688302156549" y="3" font-family="sans-serif">DESTINATION</text></g><g class="relationship" transform="translate(42.84977266712706 -57.09701104175842) rotate(514.7329028422419)"><path class="outline" fill="#A5ABB6" stroke="none" d="M 25 0.5 L 100.45142628877623 0.5 L 100.45142628877623 -0.5 L 25 -0.5 Z M 134.89673878877625 0.5 L 210.34816507755247 0.5 L 210.34816507755247 3.5 L 217.34816507755247 0 L 210.34816507755247 -3.5 L 210.34816507755247 -0.5 L 134.89673878877625 -0.5 Z"/><text text-anchor="middle" pointer-events="none" font-size="8px" fill="#000000" x="117.67408253877623" y="3" transform="rotate(180 117.67408253877623 0)" font-family="sans-serif">ORIGIN</text></g><g class="relationship" transform="translate(42.84977266712706 -57.09701104175842) rotate(324.3495088214023)"><path class="outline" fill="#A5ABB6" stroke="none" d="M 25 0.5 L 52.08300986841353 0.5 L 52.08300986841353 -0.5 L 25 -0.5 Z M 111.27441611841353 0.5 L 138.35742598682705 0.5 L 138.35742598682705 3.5 L 145.35742598682705 0 L 138.35742598682705 -3.5 L 138.35742598682705 -0.5 L 111.27441611841353 -0.5 Z"/><text text-anchor="middle" pointer-events="none" font-size="8px" fill="#000000" x="81.67871299341353" y="3" font-family="sans-serif">DESTINATION</text></g><g class="relationship" transform="translate(-54.117118210454855 -73.37279252650912) rotate(495.5863932867468)"><path class="outline" fill="#A5ABB6" stroke="none" d="M 25 0.5 L 64.8115616866983 0.5 L 64.8115616866983 -0.5 L 25 -0.5 Z M 99.2568741866983 0.5 L 139.0684358733966 0.5 L 139.0684358733966 3.5 L 146.0684358733966 0 L 139.0684358733966 -3.5 L 139.0684358733966 -0.5 L 99.2568741866983 -0.5 Z"/><text text-anchor="middle" pointer-events="none" font-size="8px" fill="#000000" x="82.0342179366983" y="3" transform="rotate(180 82.0342179366983 0)" font-family="sans-serif">ORIGIN</text></g><g class="relationship" transform="translate(-54.117118210454855 -73.37279252650912) rotate(252.9900395869692)"><path class="outline" fill="#A5ABB6" stroke="none" d="M 25 0.5 L 75.04351450796439 0.5 L 75.04351450796439 -0.5 L 25 -0.5 Z M 134.2349207579644 0.5 L 184.27843526592878 0.5 L 184.27843526592878 3.5 L 191.27843526592878 0 L 184.27843526592878 -3.5 L 184.27843526592878 -0.5 L 134.2349207579644 -0.5 Z"/><text text-anchor="middle" pointer-events="none" font-size="8px" fill="#000000" x="104.63921763296439" y="3" transform="rotate(180 104.63921763296439 0)" font-family="sans-serif">DESTINATION</text></g><g class="relationship" transform="translate(6.380214809284742 -149.89528984450678) rotate(492.95220096193657)"><path class="outline" fill="#A5ABB6" stroke="none" d="M 25 0.5 L 113.33652266010992 0.5 L 113.33652266010992 -0.5 L 25 -0.5 Z M 147.78183516010992 0.5 L 236.11835782021984 0.5 L 236.11835782021984 3.5 L 243.11835782021984 0 L 236.11835782021984 -3.5 L 236.11835782021984 -0.5 L 147.78183516010992 -0.5 Z"/><text text-anchor="middle" pointer-events="none" font-size="8px" fill="#000000" x="130.55917891010992" y="3" transform="rotate(180 130.55917891010992 0)" font-family="sans-serif">ORIGIN</text></g><g class="relationship" transform="translate(6.380214809284742 -149.89528984450678) rotate(226.47178039273888)"><path class="outline" fill="#A5ABB6" stroke="none" d="M 25 0.5 L 56.758274962381904 0.5 L 56.758274962381904 -0.5 L 25 -0.5 Z M 115.9496812123819 0.5 L 147.7079561747638 0.5 L 147.7079561747638 3.5 L 154.7079561747638 0 L 147.7079561747638 -3.5 L 147.7079561747638 -0.5 L 115.9496812123819 -0.5 Z"/><text text-anchor="middle" pointer-events="none" font-size="8px" fill="#000000" x="86.3539780873819" y="3" transform="rotate(180 86.3539780873819 0)" font-family="sans-serif">DESTINATION</text></g><g class="relationship" transform="translate(-89.25121557657324 -165.72156909617001) rotate(472.3198236894303)"><path class="outline" fill="#A5ABB6" stroke="none" d="M 25 0.5 L 93.899043943893 0.5 L 93.899043943893 -0.5 L 25 -0.5 Z M 128.344356443893 0.5 L 197.243400387786 0.5 L 197.243400387786 3.5 L 204.243400387786 0 L 197.243400387786 -3.5 L 197.243400387786 -0.5 L 128.344356443893 -0.5 Z"/><text text-anchor="middle" pointer-events="none" font-size="8px" fill="#000000" x="111.121700193893" y="3" transform="rotate(180 111.121700193893 0)" font-family="sans-serif">ORIGIN</text></g><g class="relationship" transform="translate(-89.25121557657324 -165.72156909617001) rotate(256.19082597043166)"><path class="outline" fill="#A5ABB6" stroke="none" d="M 25 0.5 L 25.84198951525788 0.5 L 25.84198951525788 -0.5 L 25 -0.5 Z M 85.03339576525788 0.5 L 85.87538528051576 0.5 L 85.87538528051576 3.5 L 92.87538528051576 0 L 85.87538528051576 -3.5 L 85.87538528051576 -0.5 L 85.03339576525788 -0.5 Z"/><text text-anchor="middle" pointer-events="none" font-size="8px" fill="#000000" x="55.43769264025788" y="3" transform="rotate(180 55.43769264025788 0)" font-family="sans-serif">DESTINATION</text></g><g class="relationship" transform="translate(-150.27237605156068 -89.79115319292953) rotate(460.8285793200505)"><path class="outline" fill="#A5ABB6" stroke="none" d="M 25 0.5 L 48.58022248343558 0.5 L 48.58022248343558 -0.5 L 25 -0.5 Z M 83.02553498343558 0.5 L 106.60575746687115 0.5 L 106.60575746687115 3.5 L 113.60575746687115 0 L 106.60575746687115 -3.5 L 106.60575746687115 -0.5 L 83.02553498343558 -0.5 Z"/><text text-anchor="middle" pointer-events="none" font-size="8px" fill="#000000" x="65.80287873343558" y="3" transform="rotate(180 65.80287873343558 0)" font-family="sans-serif">ORIGIN</text></g><g class="relationship" transform="translate(-150.27237605156068 -89.79115319292953) rotate(279.79942599567596)"><path class="outline" fill="#A5ABB6" stroke="none" d="M 25 0.5 L 63.513229389138786 0.5 L 63.513229389138786 -0.5 L 25 -0.5 Z M 122.70463563913879 0.5 L 161.21786502827757 0.5 L 161.21786502827757 3.5 L 168.21786502827757 0 L 161.21786502827757 -3.5 L 161.21786502827757 -0.5 L 122.70463563913879 -0.5 Z"/><text text-anchor="middle" pointer-events="none" font-size="8px" fill="#000000" x="93.10893251413879" y="3" font-family="sans-serif">DESTINATION</text></g><g class="relationship" transform="translate(-187.08005773265816 -180.4126925765631) rotate(447.28135679061717)"><path class="outline" fill="#A5ABB6" stroke="none" d="M 25 0.5 L 92.78471489056204 0.5 L 92.78471489056204 -0.5 L 25 -0.5 Z M 127.23002739056204 0.5 L 195.0147422811241 0.5 L 195.0147422811241 3.5 L 202.0147422811241 0 L 195.0147422811241 -3.5 L 195.0147422811241 -0.5 L 127.23002739056204 -0.5 Z"/><text text-anchor="middle" pointer-events="none" font-size="8px" fill="#000000" x="110.00737114056204" y="3" font-family="sans-serif">ORIGIN</text></g><g class="relationship" transform="translate(-187.08005773265816 -180.4126925765631) rotate(304.9338807793697)"><path class="outline" fill="#A5ABB6" stroke="none" d="M 25 0.5 L 27.757900769967556 0.5 L 27.757900769967556 -0.5 L 25 -0.5 Z M 86.94930701996756 0.5 L 89.70720778993511 0.5 L 89.70720778993511 3.5 L 96.70720778993511 0 L 89.70720778993511 -3.5 L 89.70720778993511 -0.5 L 86.94930701996756 -0.5 Z"/><text text-anchor="middle" pointer-events="none" font-size="8px" fill="#000000" x="57.353603894967556" y="3" font-family="sans-serif">DESTINATION</text></g><g class="relationship" transform="translate(-285.04403111477416 -194.047669800318) rotate(425.66250041313276)"><path class="outline" fill="#A5ABB6" stroke="none" d="M 25 0.5 L 111.19771955432111 0.5 L 111.19771955432111 -0.5 L 25 -0.5 Z M 145.6430320543211 0.5 L 231.84075160864222 0.5 L 231.84075160864222 3.5 L 238.84075160864222 0 L 231.84075160864222 -3.5 L 231.84075160864222 -0.5 L 145.6430320543211 -0.5 Z"/><text text-anchor="middle" pointer-events="none" font-size="8px" fill="#000000" x="128.4203758043211" y="3" font-family="sans-serif">ORIGIN</text></g><g class="relationship" transform="translate(-285.04403111477416 -194.047669800318) rotate(332.8059224995243)"><path class="outline" fill="#A5ABB6" stroke="none" d="M 25 0.5 L 61.15057089335677 0.5 L 61.15057089335677 -0.5 L 25 -0.5 Z M 120.34197714335677 0.5 L 156.49254803671354 0.5 L 156.49254803671354 3.5 L 163.49254803671354 0 L 156.49254803671354 -3.5 L 156.49254803671354 -0.5 L 120.34197714335677 -0.5 Z"/><text text-anchor="middle" pointer-events="none" font-size="8px" fill="#000000" x="90.74627401835677" y="3" font-family="sans-serif">DESTINATION</text></g><g class="relationship" transform="translate(-248.06947316159236 -103.80266968931136) rotate(424.4566315360637)"><path class="outline" fill="#A5ABB6" stroke="none" d="M 25 0.5 L 62.48470771490298 0.5 L 62.48470771490298 -0.5 L 25 -0.5 Z M 96.93002021490298 0.5 L 134.41472792980596 0.5 L 134.41472792980596 3.5 L 141.41472792980596 0 L 134.41472792980596 -3.5 L 134.41472792980596 -0.5 L 96.93002021490298 -0.5 Z"/><text text-anchor="middle" pointer-events="none" font-size="8px" fill="#000000" x="79.70736396490298" y="3" font-family="sans-serif">ORIGIN</text></g><g class="relationship" transform="translate(-248.06947316159236 -103.80266968931136) rotate(306.5342041432598)"><path class="outline" fill="#A5ABB6" stroke="none" d="M 25 0.5 L 76.66588180686024 0.5 L 76.66588180686024 -0.5 L 25 -0.5 Z M 135.85728805686023 0.5 L 187.52316986372048 0.5 L 187.52316986372048 3.5 L 194.52316986372048 0 L 187.52316986372048 -3.5 L 187.52316986372048 -0.5 L 135.85728805686023 -0.5 Z"/><text text-anchor="middle" pointer-events="none" font-size="8px" fill="#000000" x="106.26158493186024" y="3" font-family="sans-serif">DESTINATION</text></g><g class="relationship" transform="translate(-302.0633685492924 -1.0537681127884961) rotate(380.6533318862891)"><path class="outline" fill="#A5ABB6" stroke="none" d="M 25 0.5 L 46.47126466266511 0.5 L 46.47126466266511 -0.5 L 25 -0.5 Z M 80.9165771626651 0.5 L 102.38784182533021 0.5 L 102.38784182533021 3.5 L 109.38784182533021 0 L 102.38784182533021 -3.5 L 102.38784182533021 -0.5 L 80.9165771626651 -0.5 Z"/><text text-anchor="middle" pointer-events="none" font-size="8px" fill="#000000" x="63.69392091266511" y="3" font-family="sans-serif">ORIGIN</text></g><g class="relationship" transform="translate(-302.0633685492924 -1.0537681127884961) rotate(191.9197298152801)"><path class="outline" fill="#A5ABB6" stroke="none" d="M 25 0.5 L 67.93033690213052 0.5 L 67.93033690213052 -0.5 L 25 -0.5 Z M 127.12174315213052 0.5 L 170.05208005426104 0.5 L 170.05208005426104 3.5 L 177.05208005426104 0 L 170.05208005426104 -3.5 L 170.05208005426104 -0.5 L 127.12174315213052 -0.5 Z"/><text text-anchor="middle" pointer-events="none" font-size="8px" fill="#000000" x="97.52604002713052" y="3" transform="rotate(180 97.52604002713052 0)" font-family="sans-serif">DESTINATION</text></g><g class="relationship" transform="translate(-399.524343721415 -5.330243387741365) rotate(373.03514911008267)"><path class="outline" fill="#A5ABB6" stroke="none" d="M 25 0.5 L 93.8352502223367 0.5 L 93.8352502223367 -0.5 L 25 -0.5 Z M 128.2805627223367 0.5 L 197.1158129446734 0.5 L 197.1158129446734 3.5 L 204.1158129446734 0 L 197.1158129446734 -3.5 L 197.1158129446734 -0.5 L 128.2805627223367 -0.5 Z"/><text text-anchor="middle" pointer-events="none" font-size="8px" fill="#000000" x="111.0579064723367" y="3" font-family="sans-serif">ORIGIN</text></g><g class="relationship" transform="translate(-399.524343721415 -5.330243387741365) rotate(200.48970129863244)"><path class="outline" fill="#A5ABB6" stroke="none" d="M 25 0.5 L 25.666082163173698 0.5 L 25.666082163173698 -0.5 L 25 -0.5 Z M 74.3379571631737 0.5 L 75.0040393263474 0.5 L 75.0040393263474 3.5 L 82.0040393263474 0 L 75.0040393263474 -3.5 L 75.0040393263474 -0.5 L 74.3379571631737 -0.5 Z"/><text text-anchor="middle" pointer-events="none" font-size="8px" fill="#000000" x="50.0020196631737" y="3" transform="rotate(180 50.0020196631737 0)" font-family="sans-serif">DESTINA…</text></g><g class="relationship" transform="translate(-347.1336252404188 -88.74997092341238) rotate(398.3392380423929)"><path class="outline" fill="#A5ABB6" stroke="none" d="M 25 0.5 L 88.17058766906392 0.5 L 88.17058766906392 -0.5 L 25 -0.5 Z M 122.61590016906392 0.5 L 185.78648783812784 0.5 L 185.78648783812784 3.5 L 192.78648783812784 0 L 185.78648783812784 -3.5 L 185.78648783812784 -0.5 L 122.61590016906392 -0.5 Z"/><text text-anchor="middle" pointer-events="none" font-size="8px" fill="#000000" x="105.39324391906392" y="3" font-family="sans-serif">ORIGIN</text></g><g class="relationship" transform="translate(-347.1336252404188 -88.74997092341238) rotate(523.239956185434)"><path class="outline" fill="#A5ABB6" stroke="none" d="M 25 0.5 L 46.60238606354146 0.5 L 46.60238606354146 -0.5 L 25 -0.5 Z M 105.79379231354146 0.5 L 127.39617837708292 0.5 L 127.39617837708292 3.5 L 134.39617837708292 0 L 127.39617837708292 -3.5 L 127.39617837708292 -0.5 L 105.79379231354146 -0.5 Z"/><text text-anchor="middle" pointer-events="none" font-size="8px" fill="#000000" x="76.19808918854146" y="3" transform="rotate(180 76.19808918854146 0)" font-family="sans-serif">DESTINATION</text></g><g class="relationship" transform="translate(-356.45050512838066 82.13591695375908) rotate(348.76294896579657)"><path class="outline" fill="#A5ABB6" stroke="none" d="M 25 0.5 L 71.10682029259289 0.5 L 71.10682029259289 -0.5 L 25 -0.5 Z M 105.55213279259289 0.5 L 151.65895308518577 0.5 L 151.65895308518577 3.5 L 158.65895308518577 0 L 151.65895308518577 -3.5 L 151.65895308518577 -0.5 L 105.55213279259289 -0.5 Z"/><text text-anchor="middle" pointer-events="none" font-size="8px" fill="#000000" x="88.32947654259289" y="3" font-family="sans-serif">ORIGIN</text></g><g class="relationship" transform="translate(-356.45050512838066 82.13591695375908) rotate(221.07864447456143)"><path class="outline" fill="#A5ABB6" stroke="none" d="M 25 0.5 L 61.96047306086406 0.5 L 61.96047306086406 -0.5 L 25 -0.5 Z M 121.15187931086406 0.5 L 158.11235237172812 0.5 L 158.11235237172812 3.5 L 165.11235237172812 0 L 158.11235237172812 -3.5 L 158.11235237172812 -0.5 L 121.15187931086406 -0.5 Z"/><text text-anchor="middle" pointer-events="none" font-size="8px" fill="#000000" x="91.55617618586406" y="3" transform="rotate(180 91.55617618586406 0)" font-family="sans-serif">DESTINATION</text></g><g class="relationship" transform="translate(-242.6084417546635 175.2262298128533) rotate(297.221401119728)"><path class="outline" fill="#A5ABB6" stroke="none" d="M 25 0.5 L 51.74308884960071 0.5 L 51.74308884960071 -0.5 L 25 -0.5 Z M 86.18840134960071 0.5 L 112.93149019920142 0.5 L 112.93149019920142 3.5 L 119.93149019920142 0 L 112.93149019920142 -3.5 L 112.93149019920142 -0.5 L 86.18840134960071 -0.5 Z"/><text text-anchor="middle" pointer-events="none" font-size="8px" fill="#000000" x="68.96574509960071" y="3" font-family="sans-serif">ORIGIN</text></g><g class="relationship" transform="translate(-242.6084417546635 175.2262298128533) rotate(485.16937555980087)"><path class="outline" fill="#A5ABB6" stroke="none" d="M 25 0.5 L 61.12957997740864 0.5 L 61.12957997740864 -0.5 L 25 -0.5 Z M 120.32098622740864 0.5 L 156.45056620481728 0.5 L 156.45056620481728 3.5 L 163.45056620481728 0 L 156.45056620481728 -3.5 L 156.45056620481728 -0.5 L 120.32098622740864 -0.5 Z"/><text text-anchor="middle" pointer-events="none" font-size="8px" fill="#000000" x="90.72528310240864" y="3" transform="rotate(180 90.72528310240864 0)" font-family="sans-serif">DESTINATION</text></g><g class="relationship" transform="translate(-340.99171904792246 180.82383453153665) rotate(320.7648887358192)"><path class="outline" fill="#A5ABB6" stroke="none" d="M 25 0.5 L 85.58281782978965 0.5 L 85.58281782978965 -0.5 L 25 -0.5 Z M 120.02813032978965 0.5 L 180.6109481595793 0.5 L 180.6109481595793 3.5 L 187.6109481595793 0 L 180.6109481595793 -3.5 L 180.6109481595793 -0.5 L 120.02813032978965 -0.5 Z"/><text text-anchor="middle" pointer-events="none" font-size="8px" fill="#000000" x="102.80547407978965" y="3" font-family="sans-serif">ORIGIN</text></g><g class="relationship" transform="translate(-340.99171904792246 180.82383453153665) rotate(453.9165049408728)"><path class="outline" fill="#A5ABB6" stroke="none" d="M 25 0.5 L 41.303973538855544 0.5 L 41.303973538855544 -0.5 L 25 -0.5 Z M 100.49537978885554 0.5 L 116.79935332771109 0.5 L 116.79935332771109 3.5 L 123.79935332771109 0 L 116.79935332771109 -3.5 L 116.79935332771109 -0.5 L 100.49537978885554 -0.5 Z"/><text text-anchor="middle" pointer-events="none" font-size="8px" fill="#000000" x="70.89967666385554" y="3" transform="rotate(180 70.89967666385554 0)" font-family="sans-serif">DESTINATION</text></g></g><g class="layer nodes"><g class="node" aria-label="graph-node210" transform="translate(-176.3124142546165,46.346543325516464)"><circle class="outline" cx="0" cy="0" r="25" fill="#ECB5C9" stroke="#da7298" stroke-width="2px"/><text class="caption" text-anchor="middle" pointer-events="none" x="0" y="5" font-size="10px" fill="#2A2C34" font-family="sans-serif"> LAX</text></g><g class="node" aria-label="graph-node206" transform="translate(-133.06317777833289,401.00729077779295)"><circle class="outline" cx="0" cy="0" r="25" fill="#ECB5C9" stroke="#da7298" stroke-width="2px"/><text class="caption" text-anchor="middle" pointer-events="none" x="0" y="5" font-size="10px" fill="#2A2C34" font-family="sans-serif"> EWR</text></g><g class="node" aria-label="graph-node207" transform="translate(151.29026058525204,-31.77142414411833)"><circle class="outline" cx="0" cy="0" r="25" fill="#ECB5C9" stroke="#da7298" stroke-width="2px"/><text class="caption" text-anchor="middle" pointer-events="none" x="0" y="5" font-size="10px" fill="#2A2C34" font-family="sans-serif"> IAH</text></g><g class="node" aria-label="graph-node218" transform="translate(109.43925834705249,278.60075588794194)"><circle class="outline" cx="0" cy="0" r="25" fill="#ECB5C9" stroke="#da7298" stroke-width="2px"/><text class="caption" text-anchor="middle" pointer-events="none" x="0" y="5" font-size="10px" fill="#2A2C34" font-family="sans-serif"> SMF</text></g><g class="node" aria-label="graph-node221" transform="translate(259.3307985564371,68.16582625326834)"><circle class="outline" cx="0" cy="0" r="25" fill="#ECB5C9" stroke="#da7298" stroke-width="2px"/><text class="caption" text-anchor="middle" pointer-events="none" x="0" y="5" font-size="10px" fill="#2A2C34" font-family="sans-serif"> BOS</text></g><g class="node" aria-label="graph-node230" transform="translate(181.28008021629978,-156.3880103352428)"><circle class="outline" cx="0" cy="0" r="25" fill="#ECB5C9" stroke="#da7298" stroke-width="2px"/><text class="caption" text-anchor="middle" pointer-events="none" x="0" y="5" font-size="10px" fill="#2A2C34" font-family="sans-serif"> LAS</text></g><g class="node" aria-label="graph-node245" transform="translate(-117.38676747861946,-280.1898929862196)"><circle class="outline" cx="0" cy="0" r="25" fill="#ECB5C9" stroke="#da7298" stroke-width="2px"/><text class="caption" text-anchor="middle" pointer-events="none" x="0" y="5" font-size="10px" fill="#2A2C34" font-family="sans-serif"> ABQ</text></g><g class="node" aria-label="graph-node246" transform="translate(-499.75878561626826,-42.78583162476927)"><circle class="outline" cx="0" cy="0" r="25" fill="#ECB5C9" stroke="#da7298" stroke-width="2px"/><text class="caption" text-anchor="middle" pointer-events="none" x="0" y="5" font-size="10px" fill="#2A2C34" font-family="sans-serif"> FAT</text></g><g class="node" aria-label="graph-node247" transform="translate(-351.155114603006,329.27568848269453)"><circle class="outline" cx="0" cy="0" r="25" fill="#ECB5C9" stroke="#da7298" stroke-width="2px"/><text class="caption" text-anchor="middle" pointer-events="none" x="0" y="5" font-size="10px" fill="#2A2C34" font-family="sans-serif"> TUS</text></g><g class="node" aria-label="graph-node340" transform="translate(-232.95968269711577,273.35580052963667)"><circle class="outline" cx="0" cy="0" r="25" fill="#4C8EDA" stroke="#2870c2" stroke-width="2px"/><text class="caption" text-anchor="middle" pointer-events="none" x="0" y="5" font-size="10px" fill="#FFFFFF" font-family="sans-serif"> 11/30/20…</text></g><g class="node" aria-label="graph-node748" transform="translate(-152.9994770569359,216.1441695830822)"><circle class="outline" cx="0" cy="0" r="25" fill="#4C8EDA" stroke="#2870c2" stroke-width="2px"/><text class="caption" text-anchor="middle" pointer-events="none" x="0" y="5" font-size="10px" fill="#FFFFFF" font-family="sans-serif"> 11/29/20…</text></g><g class="node" aria-label="graph-node308" transform="translate(-19.466854165907286,19.52408538671544)"><circle class="outline" cx="0" cy="0" r="25" fill="#4C8EDA" stroke="#2870c2" stroke-width="2px"/><text class="caption" text-anchor="middle" pointer-events="none" x="0" y="5" font-size="10px" fill="#FFFFFF" font-family="sans-serif"> 11/30/20…</text></g><g class="node" aria-label="graph-node1204" transform="translate(-68.65495977457807,163.07175578628699)"><circle class="outline" cx="0" cy="0" r="25" fill="#4C8EDA" stroke="#2870c2" stroke-width="2px"/><text class="caption" text-anchor="middle" pointer-events="none" x="0" y="0" font-size="10px" fill="#FFFFFF" font-family="sans-serif"> 11/1/2015</text><text class="caption" text-anchor="middle" pointer-events="none" x="0" y="10" font-size="10px" fill="#FFFFFF" font-family="sans-serif"> 12:26:…</text></g><g class="node" aria-label="graph-node1200" transform="translate(15.862612906552583,111.87058212164632)"><circle class="outline" cx="0" cy="0" r="25" fill="#4C8EDA" stroke="#2870c2" stroke-width="2px"/><text class="caption" text-anchor="middle" pointer-events="none" x="0" y="0" font-size="10px" fill="#FFFFFF" font-family="sans-serif"> 11/2/2015</text><text class="caption" text-anchor="middle" pointer-events="none" x="0" y="10" font-size="10px" fill="#FFFFFF" font-family="sans-serif"> 11:49:…</text></g><g class="node" aria-label="graph-node1208" transform="translate(18.111798764282995,208.90195785897376)"><circle class="outline" cx="0" cy="0" r="25" fill="#4C8EDA" stroke="#2870c2" stroke-width="2px"/><text class="caption" text-anchor="middle" pointer-events="none" x="0" y="0" font-size="10px" fill="#FFFFFF" font-family="sans-serif"> 11/4/2015</text><text class="caption" text-anchor="middle" pointer-events="none" x="0" y="10" font-size="10px" fill="#FFFFFF" font-family="sans-serif"> 05:06:…</text></g><g class="node" aria-label="graph-node1212" transform="translate(-65.37250313580275,261.3324831398912)"><circle class="outline" cx="0" cy="0" r="25" fill="#4C8EDA" stroke="#2870c2" stroke-width="2px"/><text class="caption" text-anchor="middle" pointer-events="none" x="0" y="0" font-size="10px" fill="#FFFFFF" font-family="sans-serif"> 11/3/2015</text><text class="caption" text-anchor="middle" pointer-events="none" x="0" y="10" font-size="10px" fill="#FFFFFF" font-family="sans-serif"> 13:44:…</text></g><g class="node" aria-label="graph-node852" transform="translate(78.22457857056851,35.58357378652963)"><circle class="outline" cx="0" cy="0" r="25" fill="#4C8EDA" stroke="#2870c2" stroke-width="2px"/><text class="caption" text-anchor="middle" pointer-events="none" x="0" y="5" font-size="10px" fill="#FFFFFF" font-family="sans-serif"> 11/29/20…</text></g><g class="node" aria-label="graph-node864" transform="translate(42.84977266712706,-57.09701104175842)"><circle class="outline" cx="0" cy="0" r="25" fill="#4C8EDA" stroke="#2870c2" stroke-width="2px"/><text class="caption" text-anchor="middle" pointer-events="none" x="0" y="5" font-size="10px" fill="#FFFFFF" font-family="sans-serif"> 11/29/20…</text></g><g class="node" aria-label="graph-node1132" transform="translate(-54.117118210454855,-73.37279252650912)"><circle class="outline" cx="0" cy="0" r="25" fill="#4C8EDA" stroke="#2870c2" stroke-width="2px"/><text class="caption" text-anchor="middle" pointer-events="none" x="0" y="0" font-size="10px" fill="#FFFFFF" font-family="sans-serif"> 11/1/2015</text><text class="caption" text-anchor="middle" pointer-events="none" x="0" y="10" font-size="10px" fill="#FFFFFF" font-family="sans-serif"> 05:43:…</text></g><g class="node" aria-label="graph-node1136" transform="translate(6.380214809284742,-149.89528984450678)"><circle class="outline" cx="0" cy="0" r="25" fill="#4C8EDA" stroke="#2870c2" stroke-width="2px"/><text class="caption" text-anchor="middle" pointer-events="none" x="0" y="0" font-size="10px" fill="#FFFFFF" font-family="sans-serif"> 11/3/2015</text><text class="caption" text-anchor="middle" pointer-events="none" x="0" y="10" font-size="10px" fill="#FFFFFF" font-family="sans-serif"> 21:46:…</text></g><g class="node" aria-label="graph-node1128" transform="translate(-89.25121557657324,-165.72156909617001)"><circle class="outline" cx="0" cy="0" r="25" fill="#4C8EDA" stroke="#2870c2" stroke-width="2px"/><text class="caption" text-anchor="middle" pointer-events="none" x="0" y="0" font-size="10px" fill="#FFFFFF" font-family="sans-serif"> 11/4/2015</text><text class="caption" text-anchor="middle" pointer-events="none" x="0" y="10" font-size="10px" fill="#FFFFFF" font-family="sans-serif"> 15:09:…</text></g><g class="node" aria-label="graph-node1172" transform="translate(-150.27237605156068,-89.79115319292953)"><circle class="outline" cx="0" cy="0" r="25" fill="#4C8EDA" stroke="#2870c2" stroke-width="2px"/><text class="caption" text-anchor="middle" pointer-events="none" x="0" y="0" font-size="10px" fill="#FFFFFF" font-family="sans-serif"> 11/3/2015</text><text class="caption" text-anchor="middle" pointer-events="none" x="0" y="10" font-size="10px" fill="#FFFFFF" font-family="sans-serif"> 23:26:…</text></g><g class="node" aria-label="graph-node1176" transform="translate(-187.08005773265816,-180.4126925765631)"><circle class="outline" cx="0" cy="0" r="25" fill="#4C8EDA" stroke="#2870c2" stroke-width="2px"/><text class="caption" text-anchor="middle" pointer-events="none" x="0" y="0" font-size="10px" fill="#FFFFFF" font-family="sans-serif"> 11/1/2015</text><text class="caption" text-anchor="middle" pointer-events="none" x="0" y="10" font-size="10px" fill="#FFFFFF" font-family="sans-serif"> 17:17:…</text></g><g class="node" aria-label="graph-node1124" transform="translate(-285.04403111477416,-194.047669800318)"><circle class="outline" cx="0" cy="0" r="25" fill="#4C8EDA" stroke="#2870c2" stroke-width="2px"/><text class="caption" text-anchor="middle" pointer-events="none" x="0" y="0" font-size="10px" fill="#FFFFFF" font-family="sans-serif"> 11/2/2015</text><text class="caption" text-anchor="middle" pointer-events="none" x="0" y="10" font-size="10px" fill="#FFFFFF" font-family="sans-serif"> 04:43:…</text></g><g class="node" aria-label="graph-node1180" transform="translate(-248.06947316159236,-103.80266968931136)"><circle class="outline" cx="0" cy="0" r="25" fill="#4C8EDA" stroke="#2870c2" stroke-width="2px"/><text class="caption" text-anchor="middle" pointer-events="none" x="0" y="0" font-size="10px" fill="#FFFFFF" font-family="sans-serif"> 11/2/2015</text><text class="caption" text-anchor="middle" pointer-events="none" x="0" y="10" font-size="10px" fill="#FFFFFF" font-family="sans-serif"> 15:15:…</text></g><g class="node" aria-label="graph-node1164" transform="translate(-302.0633685492924,-1.0537681127884961)"><circle class="outline" cx="0" cy="0" r="25" fill="#4C8EDA" stroke="#2870c2" stroke-width="2px"/><text class="caption" text-anchor="middle" pointer-events="none" x="0" y="0" font-size="10px" fill="#FFFFFF" font-family="sans-serif"> 11/1/2015</text><text class="caption" text-anchor="middle" pointer-events="none" x="0" y="10" font-size="10px" fill="#FFFFFF" font-family="sans-serif"> 02:27:…</text></g><g class="node" aria-label="graph-node1156" transform="translate(-399.524343721415,-5.330243387741365)"><circle class="outline" cx="0" cy="0" r="25" fill="#4C8EDA" stroke="#2870c2" stroke-width="2px"/><text class="caption" text-anchor="middle" pointer-events="none" x="0" y="0" font-size="10px" fill="#FFFFFF" font-family="sans-serif"> 11/3/2015</text><text class="caption" text-anchor="middle" pointer-events="none" x="0" y="10" font-size="10px" fill="#FFFFFF" font-family="sans-serif"> 11:45:…</text></g><g class="node" aria-label="graph-node1160" transform="translate(-347.1336252404188,-88.74997092341238)"><circle class="outline" cx="0" cy="0" r="25" fill="#4C8EDA" stroke="#2870c2" stroke-width="2px"/><text class="caption" text-anchor="middle" pointer-events="none" x="0" y="0" font-size="10px" fill="#FFFFFF" font-family="sans-serif"> 11/2/2015</text><text class="caption" text-anchor="middle" pointer-events="none" x="0" y="10" font-size="10px" fill="#FFFFFF" font-family="sans-serif"> 09:18:…</text></g><g class="node" aria-label="graph-node1168" transform="translate(-356.45050512838066,82.13591695375908)"><circle class="outline" cx="0" cy="0" r="25" fill="#4C8EDA" stroke="#2870c2" stroke-width="2px"/><text class="caption" text-anchor="middle" pointer-events="none" x="0" y="0" font-size="10px" fill="#FFFFFF" font-family="sans-serif"> 11/4/2015</text><text class="caption" text-anchor="middle" pointer-events="none" x="0" y="10" font-size="10px" fill="#FFFFFF" font-family="sans-serif"> 15:13:…</text></g><g class="node" aria-label="graph-node1184" transform="translate(-242.6084417546635,175.2262298128533)"><circle class="outline" cx="0" cy="0" r="25" fill="#4C8EDA" stroke="#2870c2" stroke-width="2px"/><text class="caption" text-anchor="middle" pointer-events="none" x="0" y="0" font-size="10px" fill="#FFFFFF" font-family="sans-serif"> 11/1/2015</text><text class="caption" text-anchor="middle" pointer-events="none" x="0" y="10" font-size="10px" fill="#FFFFFF" font-family="sans-serif"> 05:51:…</text></g><g class="node" aria-label="graph-node1188" transform="translate(-340.99171904792246,180.82383453153665)"><circle class="outline" cx="0" cy="0" r="25" fill="#4C8EDA" stroke="#2870c2" stroke-width="2px"/><text class="caption" text-anchor="middle" pointer-events="none" x="0" y="0" font-size="10px" fill="#FFFFFF" font-family="sans-serif"> 11/2/2015</text><text class="caption" text-anchor="middle" pointer-events="none" x="0" y="10" font-size="10px" fill="#FFFFFF" font-family="sans-serif"> 09:52:…</text></g></g></svg>