<svg xmlns="http://www.w3.org/2000/svg" width="997.14306640625" height="326.8221130371094" viewBox="-598.7639770507812 -238.9561309814453 997.14306640625 326.8221130371094"><title>Neo4j Graph Visualization</title><desc>Created using Neo4j (http://www.neo4j.com/)</desc><g class="layer relationships"><g class="relationship" transform="translate(-569.7639493357913 -44.465436370861596) rotate(378.6216313504513)"><path class="outline" fill="#A5ABB6" stroke="none" d="M 24.018736134675446,-6.953439040707552 L 24.277555179777966,-5.987513214418485 A 320.10404701742004 320.10404701742004 0 0 1 93.53976017492421,-16.606317816281774 L 93.4973151670777,-17.60541662085967 A 321.10404701742004 321.10404701742004 0 0 0 24.018736134675446,-6.953439040707552 Z M 115.53830436100344,-17.784597332670785 L 115.5121081000816,-16.784940513600475 A 320.10404701742004 320.10404701742004 0 0 1 184.9377972265355,-7.29358964666931 L 184.2085541664499,-4.3835716812063845 L 191.84937965596325,-6.077025500713388 L 185.91012130664964,-11.173613600619877 L 185.18087824656402,-8.263595635156952 A 321.10404701742004 321.10404701742004 0 0 0 115.53830436100344,-17.784597332670785"/><text text-anchor="middle" pointer-events="none" font-size="8px" fill="#000000" x="104.52033644271772" y="-14.384200658067982" font-family="sans-serif">road</text></g><g class="relationship" transform="translate(-364.97767914370974 24.53883982962902) rotate(367.0298082211793)"><path class="outline" fill="#A5ABB6" stroke="none" d="M 21.40063509461097,-12.933012701892217 L 21.90063509461097,-12.06698729810778 A 154.8841231724443 154.8841231724443 0 0 1 87.09672379881778,-32.332649910510256 L 87.01765841347559,-33.32951934270319 A 155.8841231724443 155.8841231724443 0 0 0 21.40063509461097,-12.933012701892217 Z M 106.4005245627854,-33.65766767192345 L 106.35524844525455,-32.65869316114687 A 154.8841231724443 154.8841231724443 0 0 1 172.19996623351972,-14.61152710023168 L 170.78877053326897,-11.96416488557464 L 178.61234401776127,-11.759964168756126 L 174.0815605005207,-18.141343386441065 L 172.67036480026997,-15.493981171784025 A 155.8841231724443 155.8841231724443 0 0 0 106.4005245627854,-33.65766767192345"/><text text-anchor="middle" pointer-events="none" font-size="8px" fill="#000000" x="96.7124492045377" y="-30.295261954497292" font-family="sans-serif">trek</text></g><g class="relationship" transform="translate(-165.8125248480194 49.09843068618805) rotate(347.15243208494235)"><path class="outline" fill="#A5ABB6" stroke="none" d="M 21.40063509461097,12.933012701892217 L 21.90063509461097,12.06698729810778 A 145.81864214565257 145.81864214565257 0 0 0 82.60889078793087,31.091635301863235 L 82.52521791044434,32.088128578093986 A 146.81864214565257 146.81864214565257 0 0 1 21.40063509461097,12.933012701892217 Z M 101.91007987317494,32.431200140010404 L 101.86172004909555,31.43237016077721 A 145.81864214565257 145.81864214565257 0 0 0 163.20514025275503,14.567781855408823 L 161.79801185520074,11.918255544387112 L 169.62188971139807,11.726069979619112 L 165.08131144949408,18.10048360343777 L 163.6741830519398,15.450957292416058 A 146.81864214565257 146.81864214565257 0 0 1 101.91007987317494,32.431200140010404"/><text text-anchor="middle" pointer-events="none" font-size="8px" fill="#000000" x="92.22082730656673" y="35.0800717079383" font-family="sans-serif">trek</text></g><g class="relationship" transform="translate(21.089525645785308 6.4721171943673514) rotate(352.83852204090715)"><path class="outline" fill="#A5ABB6" stroke="none" d="M 25 0.5 L 162.34604955587537 0.5 L 162.34604955587537 -0.5 L 25 -0.5 Z M 181.68198705587537 0.5 L 319.02803661175074 0.5 L 319.02803661175074 3.5 L 326.02803661175074 0 L 319.02803661175074 -3.5 L 319.02803661175074 -0.5 L 181.68198705587537 -0.5 Z"/><text text-anchor="middle" pointer-events="none" font-size="8px" fill="#000000" x="172.01401830587537" y="3" font-family="sans-serif">trek</text></g><g class="relationship" transform="translate(-165.8125248480194 49.09843068618805) rotate(347.15243208494235)"><path class="outline" fill="#A5ABB6" stroke="none" d="M 25 0.5 L 81.34477844328957 0.5 L 81.34477844328957 -0.5 L 25 -0.5 Z M 103.35649719328957 0.5 L 159.70127563657914 0.5 L 159.70127563657914 3.5 L 166.70127563657914 0 L 159.70127563657914 -3.5 L 159.70127563657914 -0.5 L 103.35649719328957 -0.5 Z"/><text text-anchor="middle" pointer-events="none" font-size="8px" fill="#000000" x="92.35063781828957" y="3" font-family="sans-serif">road</text></g><g class="relationship" transform="translate(-569.7639493357913 -44.465436370861596) rotate(378.6216313504513)"><path class="outline" fill="#A5ABB6" stroke="none" d="M 24.018736134675446,6.953439040707552 L 24.277555179777966,5.987513214418485 A 320.10404701742004 320.10404701742004 0 0 0 94.87447489192024,16.66023120748821 L 94.83619951182268,17.659498436650836 A 321.10404701742004 321.10404701742004 0 0 1 24.018736134675446,6.953439040707552 Z M 114.19871772129551,17.81690470207309 L 114.17669327524848,16.817147269604448 A 320.10404701742004 320.10404701742004 0 0 0 184.9377972265355,7.29358964666931 L 184.2085541664499,4.3835716812063845 L 191.84937965596325,6.077025500713388 L 185.91012130664964,11.173613600619877 L 185.18087824656402,8.263595635156952 A 321.10404701742004 321.10404701742004 0 0 1 114.19871772129551,17.81690470207309"/><text text-anchor="middle" pointer-events="none" font-size="8px" fill="#000000" x="104.52033644271786" y="20.384200658067982" font-family="sans-serif">trek</text></g><g class="relationship" transform="translate(-364.97767914370974 24.53883982962902) rotate(367.0298082211793)"><path class="outline" fill="#A5ABB6" stroke="none" d="M 25 0.5 L 73.60442602828492 0.5 L 73.60442602828492 -0.5 L 25 -0.5 Z M 120.06926977828492 0.5 L 168.67369580656984 0.5 L 168.67369580656984 3.5 L 175.67369580656984 0 L 168.67369580656984 -3.5 L 168.67369580656984 -0.5 L 120.06926977828492 -0.5 Z"/><text text-anchor="middle" pointer-events="none" font-size="8px" fill="#000000" x="96.83684790328492" y="3" font-family="sans-serif">twowheeler</text></g><g class="relationship" transform="translate(-165.8125248480194 49.09843068618805) rotate(347.15243208494235)"><path class="outline" fill="#A5ABB6" stroke="none" d="M 21.40063509461097,-12.933012701892217 L 21.90063509461097,-12.06698729810778 A 145.81864214565257 145.81864214565257 0 0 1 69.20987266471073,-29.338203734167692 L 69.03431154902597,-30.322672268281153 A 146.81864214565257 146.81864214565257 0 0 0 21.40063509461097,-12.933012701892217 Z M 115.45500795453017,-31.144221622189562 L 115.31439194361099,-30.154157413426745 A 145.81864214565257 145.81864214565257 0 0 1 163.20514025275503,-14.567781855408823 L 161.79801185520074,-11.918255544387112 L 169.62188971139807,-11.726069979619112 L 165.08131144949408,-18.10048360343777 L 163.6741830519398,-15.450957292416058 A 146.81864214565257 146.81864214565257 0 0 0 115.45500795453017,-31.144221622189562"/><text text-anchor="middle" pointer-events="none" font-size="8px" fill="#000000" x="92.22082730656675" y="-29.080071707938302" font-family="sans-serif">twowheeler</text></g><g class="relationship" transform="translate(-364.97767914370974 24.53883982962902) rotate(367.0298082211793)"><path class="outline" fill="#A5ABB6" stroke="none" d="M 21.40063509461097,12.933012701892217 L 21.90063509461097,12.06698729810778 A 154.8841231724443 154.8841231724443 0 0 0 85.7677835166831,32.22148754048085 L 85.68013790855943,33.21763925953606 A 155.8841231724443 155.8841231724443 0 0 1 21.40063509461097,12.933012701892217 Z M 107.74106570348526,33.5911266757514 L 107.68718998572945,32.592579026895166 A 154.8841231724443 154.8841231724443 0 0 0 172.19996623351972,14.61152710023168 L 170.78877053326897,11.96416488557464 L 178.61234401776127,11.759964168756126 L 174.0815605005207,18.141343386441065 L 172.67036480026997,15.493981171784025 A 155.8841231724443 155.8841231724443 0 0 1 107.74106570348526,33.5911266757514"/><text text-anchor="middle" pointer-events="none" font-size="8px" fill="#000000" x="96.71244920453766" y="36.29526195449729" font-family="sans-serif">road</text></g><g class="relationship" transform="translate(-569.7639493357913 -44.465436370861596) rotate(360.0097243911526)"><path class="outline" fill="#A5ABB6" stroke="none" d="M 21.40063509461097,12.933012701892217 L 21.90063509461097,12.06698729810778 A 273.5236398490315 273.5236398490315 0 0 0 144.7339086605892,48.357337109549974 L 144.68298601870632,49.35603971019924 A 274.5236398490315 274.5236398490315 0 0 1 21.40063509461097,12.933012701892217 Z M 166.72765922541717,49.59370748898135 L 166.69828031943032,48.594139142202096 A 273.5236398490315 273.5236398490315 0 0 0 290.2854176578238,14.960494247954282 L 288.8417805077258,12.330682129407238 L 296.6622521261166,12.03030958415009 L 292.21026719128787,18.466910406017007 L 290.76663004118984,15.837098287469962 A 274.5236398490315 274.5236398490315 0 0 1 166.72765922541717,49.59370748898135"/><text text-anchor="middle" pointer-events="none" font-size="8px" fill="#000000" x="155.70832616572633" y="52.1962824548952" font-family="sans-serif">road</text></g><g class="relationship" transform="translate(-251.18660081021653 -44.41136658063469) rotate(342.6890259254827)"><path class="outline" fill="#A5ABB6" stroke="none" d="M 24.018736134675446,-6.953439040707552 L 24.277555179777966,-5.987513214418485 A 267.2225484535535 267.2225484535535 0 0 1 81.32094964826042,-14.817955579549391 L 81.2755983467993,-15.81692667996009 A 268.2225484535535 268.2225484535535 0 0 0 24.018736134675446,-6.953439040707552 Z M 100.64260813776605,-15.996172817383751 L 100.61575443669243,-14.99653344303988 A 267.2225484535535 267.2225484535535 0 0 1 157.81281870558274,-7.223412842455754 L 157.09012918243738,-4.311760415888331 L 164.72712262143094,-6.022412692877857 L 158.7764047364432,-11.105616077878983 L 158.05371521329783,-8.193963651311561 A 268.2225484535535 268.2225484535535 0 0 0 100.64260813776605,-15.996172817383751"/><text text-anchor="middle" pointer-events="none" font-size="8px" fill="#000000" x="90.96211225395196" y="-12.581435024875475" font-family="sans-serif">trek</text></g><g class="relationship" transform="translate(-70.75627258523528 -100.64706906717002) rotate(364.200842530204)"><path class="outline" fill="#A5ABB6" stroke="none" d="M 24.018736134675446,-6.953439040707552 L 24.277555179777966,-5.987513214418485 A 249.85862516651443 249.85862516651443 0 0 1 76.87939647686221,-14.209711962232689 L 76.83110384949704,-15.208545192628122 A 250.85862516651443 250.85862516651443 0 0 0 24.018736134675446,-6.953439040707552 Z M 96.19993256920554,-15.396330681761896 L 96.17101505995751,-14.396748880377487 A 249.85862516651443 249.85862516651443 0 0 1 148.9223858143801,-7.195975059346579 L 148.20225866465609,-4.283687833087752 L 155.83774386727137,-6.00105958103363 L 149.8825553473455,-11.079024694358349 L 149.16242819762147,-8.166737468099521 A 250.85862516651443 250.85862516651443 0 0 0 96.19993256920554,-15.396330681761896"/><text text-anchor="middle" pointer-events="none" font-size="8px" fill="#000000" x="86.51855247377554" y="-11.989473670389373" font-family="sans-serif">trek</text></g><g class="relationship" transform="translate(108.86665658880213 -87.45373010215775) rotate(370.8995199673887)"><path class="outline" fill="#A5ABB6" stroke="none" d="M 24.018736134675446,6.953439040707552 L 24.277555179777966,5.987513214418485 A 415.8103428211259 415.8103428211259 0 0 0 105.94058644164542,19.3449568643328 L 105.87816229790062,20.343006575658706 A 416.8103428211259 416.8103428211259 0 0 1 24.018736134675446,6.953439040707552 Z M 152.37363818211983,20.65263480221489 L 152.324511648956,19.653842239297376 A 415.8103428211259 415.8103428211259 0 0 0 234.15819536636522,7.38517544227233 L 233.42039983472884,4.477314071178894 L 241.0661711541893,6.148296096969702 L 235.1419227418804,11.262323937063579 L 234.404127210244,8.354462565970142 A 416.8103428211259 416.8103428211259 0 0 1 152.37363818211983,20.65263480221489"/><text text-anchor="middle" pointer-events="none" font-size="8px" fill="#000000" x="129.12490896219393" y="23.646676412830914" font-family="sans-serif">twowheeler</text></g><g class="relationship" transform="translate(-70.75627258523528 -100.64706906717002) rotate(364.200842530204)"><path class="outline" fill="#A5ABB6" stroke="none" d="M 24.018736134675446,6.953439040707552 L 24.277555179777966,5.987513214418485 A 249.85862516651443 249.85862516651443 0 0 0 63.38214871376559,13.190066633235318 L 63.27983654733466,14.18481897457471 A 250.85862516651443 250.85862516651443 0 0 1 24.018736134675446,6.953439040707552 Z M 109.76850121612763,14.635537846651943 L 109.6854951993072,13.638988800607763 A 249.85862516651443 249.85862516651443 0 0 0 148.9223858143801,7.195975059346579 L 148.20225866465609,4.283687833087752 L 155.83774386727137,6.00105958103363 L 149.8825553473455,11.079024694358349 L 149.16242819762147,8.166737468099521 A 250.85862516651443 250.85862516651443 0 0 1 109.76850121612763,14.635537846651943"/><text text-anchor="middle" pointer-events="none" font-size="8px" fill="#000000" x="86.51855247377566" y="17.989473670389373" font-family="sans-serif">twowheeler</text></g><g class="relationship" transform="translate(108.86665658880213 -87.45373010215775) rotate(370.8995199673887)"><path class="outline" fill="#A5ABB6" stroke="none" d="M 24.018736134675446,-6.953439040707552 L 24.277555179777966,-5.987513214418485 A 415.8103428211259 415.8103428211259 0 0 1 119.4737099347837,-19.970272743252565 L 119.4438321760117,-20.969826303363675 A 416.8103428211259 416.8103428211259 0 0 0 24.018736134675446,-6.953439040707552 Z M 138.80082341618026,-21.09873069148267 L 138.78426040980915,-20.098867867481317 A 415.8103428211259 415.8103428211259 0 0 1 234.15819536636522,-7.38517544227233 L 233.42039983472884,-4.477314071178894 L 241.0661711541893,-6.148296096969702 L 235.1419227418804,-11.262323937063579 L 234.404127210244,-8.354462565970142 A 416.8103428211259 416.8103428211259 0 0 0 138.80082341618026,-21.09873069148267"/><text text-anchor="middle" pointer-events="none" font-size="8px" fill="#000000" x="129.12490896219396" y="-17.646676412830914" font-family="sans-serif">trek</text></g><g class="relationship" transform="translate(-569.7639493357913 -44.465436370861596) rotate(360.0097243911526)"><path class="outline" fill="#A5ABB6" stroke="none" d="M 25 0.5 L 124.9234421820043 0.5 L 124.9234421820043 -0.5 L 25 -0.5 Z M 186.6539109320043 0.5 L 286.5773531140086 0.5 L 286.5773531140086 3.5 L 293.5773531140086 0 L 286.5773531140086 -3.5 L 286.5773531140086 -0.5 L 186.6539109320043 -0.5 Z"/><text text-anchor="middle" pointer-events="none" font-size="8px" fill="#000000" x="155.7886765570043" y="3" font-family="sans-serif">PublicTransport</text></g><g class="relationship" transform="translate(-251.18660081021653 -44.41136658063469) rotate(342.6890259254827)"><path class="outline" fill="#A5ABB6" stroke="none" d="M 24.018736134675446,6.953439040707552 L 24.277555179777966,5.987513214418485 A 267.2225484535535 267.2225484535535 0 0 0 67.81709744604106,13.861640623627636 L 67.72121204002786,14.857033003000538 A 268.2225484535535 268.2225484535535 0 0 1 24.018736134675446,6.953439040707552 Z M 114.21243907760694,15.287320019969911 L 114.13499369056927,14.290323424175028 A 267.2225484535535 267.2225484535535 0 0 0 157.81281870558274,7.223412842455754 L 157.09012918243738,4.311760415888331 L 164.72712262143094,6.022412692877857 L 158.7764047364432,11.105616077878983 L 158.05371521329783,8.193963651311561 A 268.2225484535535 268.2225484535535 0 0 1 114.21243907760694,15.287320019969911"/><text text-anchor="middle" pointer-events="none" font-size="8px" fill="#000000" x="90.96211225395204" y="18.581435024875475" font-family="sans-serif">twowheeler</text></g><g class="relationship" transform="translate(-251.18660081021653 -44.41136658063469) rotate(370.585440486305)"><path class="outline" fill="#A5ABB6" stroke="none" d="M 25 0.5 L 125.32699321519715 0.5 L 125.32699321519715 -0.5 L 25 -0.5 Z M 144.66293071519715 0.5 L 244.9899239303943 0.5 L 244.9899239303943 3.5 L 251.9899239303943 0 L 244.9899239303943 -3.5 L 244.9899239303943 -0.5 L 144.66293071519715 -0.5 Z"/><text text-anchor="middle" pointer-events="none" font-size="8px" fill="#000000" x="134.99496196519715" y="3" font-family="sans-serif">trek</text></g><g class="relationship" transform="translate(-569.7639493357913 -44.465436370861596) rotate(360.0097243911526)"><path class="outline" fill="#A5ABB6" stroke="none" d="M 21.40063509461097,-12.933012701892217 L 21.90063509461097,-12.06698729810778 A 273.5236398490315 273.5236398490315 0 0 1 146.067786192176,-48.42208559521299 L 146.02174019471155,-49.421024915751275 A 274.5236398490315 274.5236398490315 0 0 0 21.40063509461097,-12.933012701892217 Z M 165.38781515816189,-49.62981422177239 L 165.36331686671153,-48.630114349952805 A 273.5236398490315 273.5236398490315 0 0 1 290.2854176578238,-14.960494247954282 L 288.8417805077258,-12.330682129407238 L 296.6622521261166,-12.03030958415009 L 292.21026719128787,-18.466910406017007 L 290.76663004118984,-15.837098287469962 A 274.5236398490315 274.5236398490315 0 0 0 165.38781515816189,-49.62981422177239"/><text text-anchor="middle" pointer-events="none" font-size="8px" fill="#000000" x="155.70832616572633" y="-46.1962824548952" font-family="sans-serif">trek</text></g><g class="relationship" transform="translate(-251.18660081021653 -44.41136658063469) rotate(508.78678382280066)"><path class="outline" fill="#A5ABB6" stroke="none" d="M 25 0.5 L 53.35747839678203 0.5 L 53.35747839678203 -0.5 L 25 -0.5 Z M 72.69341589678203 0.5 L 101.05089429356406 0.5 L 101.05089429356406 3.5 L 108.05089429356406 0 L 101.05089429356406 -3.5 L 101.05089429356406 -0.5 L 72.69341589678203 -0.5 Z"/><text text-anchor="middle" pointer-events="none" font-size="8px" fill="#000000" x="63.02544714678203" y="3" transform="rotate(180 63.02544714678203 0)" font-family="sans-serif">trek</text></g><g class="relationship" transform="translate(-70.75627258523528 -100.64706906717002) rotate(318.4979491227486)"><path class="outline" fill="#A5ABB6" stroke="none" d="M 24.018736134675446,-6.953439040707552 L 24.277555179777966,-5.987513214418485 A 220.20084569922415 220.20084569922415 0 0 1 55.82376662048114,-12.015492044059613 L 55.70820865750812,-13.008792782604331 A 221.20084569922415 221.20084569922415 0 0 0 24.018736134675446,-6.953439040707552 Z M 102.18977204657911,-13.499197681605352 L 102.09519716289803,-12.503679931197695 A 220.20084569922415 220.20084569922415 0 0 1 133.7615688680535,-7.14262704365014 L 133.04642391608542,-4.229112379593245 L 140.67896057618094,-5.959541266400745 L 134.71509547067762,-11.027313262392665 L 133.99995051870954,-8.113798598335771 A 221.20084569922415 221.20084569922415 0 0 0 102.18977204657911,-13.499197681605352"/><text text-anchor="middle" pointer-events="none" font-size="8px" fill="#000000" x="78.94134757939241" y="-10.978392606965173" font-family="sans-serif">twowheeler</text></g><g class="relationship" transform="translate(52.78623943585969 -209.95613448684483) rotate(425.4021508604514)"><path class="outline" fill="#A5ABB6" stroke="none" d="M 21.40063509461097,12.933012701892217 L 21.90063509461097,12.06698729810778 A 87.96603523202548 87.96603523202548 0 0 0 40.94304089926034,20.242489157498312 L 40.65951542552973,21.201453862660003 A 88.96603523202548 88.96603523202548 0 0 1 21.40063509461097,12.933012701892217 Z M 86.83745357649539,22.349416427032722 L 86.60192772878031,21.377548341818425 A 87.96603523202548 87.96603523202548 0 0 0 106.02703924701764,14.158331487762466 L 104.65798630184935,11.488931923567169 L 112.48381372100138,11.408774543069015 L 107.85244317390868,17.71753090668953 L 106.48339022874039,15.048131342494232 A 88.96603523202548 88.96603523202548 0 0 1 86.83745357649539,22.349416427032722"/><text text-anchor="middle" pointer-events="none" font-size="8px" fill="#000000" x="63.685106506337306" y="27.324878139832393" font-family="sans-serif">twowheeler</text></g><g class="relationship" transform="translate(52.78623943585969 -209.95613448684483) rotate(425.4021508604514)"><path class="outline" fill="#A5ABB6" stroke="none" d="M 25 0.5 L 54.196436294647725 0.5 L 54.196436294647725 -0.5 L 25 -0.5 Z M 73.53237379464773 0.5 L 102.72881008929545 0.5 L 102.72881008929545 3.5 L 109.72881008929545 0 L 102.72881008929545 -3.5 L 102.72881008929545 -0.5 L 73.53237379464773 -0.5 Z"/><text text-anchor="middle" pointer-events="none" font-size="8px" fill="#000000" x="63.864405044647725" y="3" font-family="sans-serif">trek</text></g><g class="relationship" transform="translate(52.78623943585969 -209.95613448684483) rotate(425.4021508604514)"><path class="outline" fill="#A5ABB6" stroke="none" d="M 21.40063509461097,-12.933012701892217 L 21.90063509461097,-12.06698729810778 A 87.96603523202548 87.96603523202548 0 0 1 52.80235186600795,-22.874113113411852 L 52.65364332401091,-23.862994182872242 A 88.96603523202548 88.96603523202548 0 0 0 21.40063509461097,-12.933012701892217 Z M 74.7258935546341,-24.41170029645805 L 74.6265046044471,-23.416651636049565 A 87.96603523202548 87.96603523202548 0 0 1 106.02703924701764,-14.158331487762466 L 104.65798630184935,-11.488931923567169 L 112.48381372100138,-11.408774543069015 L 107.85244317390868,-17.71753090668953 L 106.48339022874039,-15.048131342494232 A 88.96603523202548 88.96603523202548 0 0 0 74.7258935546341,-24.41170029645805"/><text text-anchor="middle" pointer-events="none" font-size="8px" fill="#000000" x="63.68510650633729" y="-21.324878139832393" font-family="sans-serif">road</text></g><g class="relationship" transform="translate(-70.75627258523528 -100.64706906717002) rotate(318.4979491227486)"><path class="outline" fill="#A5ABB6" stroke="none" d="M 24.018736134675446,6.953439040707552 L 24.277555179777966,5.987513214418485 A 220.20084569922415 220.20084569922415 0 0 0 69.30640667958508,13.1654564872523 L 69.25207754621212,14.163979569242343 A 221.20084569922415 221.20084569922415 0 0 1 24.018736134675446,6.953439040707552 Z M 88.62454511408644,14.368369273639786 L 88.59129561498793,13.368922191093787 A 220.20084569922415 220.20084569922415 0 0 0 133.7615688680535,7.14262704365014 L 133.04642391608542,4.229112379593245 L 140.67896057618094,5.959541266400745 L 134.71509547067762,11.027313262392665 L 133.99995051870954,8.113798598335771 A 221.20084569922415 221.20084569922415 0 0 1 88.62454511408644,14.368369273639786"/><text text-anchor="middle" pointer-events="none" font-size="8px" fill="#000000" x="78.94134757939247" y="16.978392606965173" font-family="sans-serif">trek</text></g><g class="relationship" transform="translate(52.78623943585969 -209.95613448684483) rotate(363.84817076635807)"><path class="outline" fill="#A5ABB6" stroke="none" d="M 25 0.5 L 67.93354628894497 0.5 L 67.93354628894497 -0.5 L 25 -0.5 Z M 87.26948378894497 0.5 L 130.20303007788993 0.5 L 130.20303007788993 3.5 L 137.20303007788993 0 L 130.20303007788993 -3.5 L 130.20303007788993 -0.5 L 87.26948378894497 -0.5 Z"/><text text-anchor="middle" pointer-events="none" font-size="8px" fill="#000000" x="77.60151503894497" y="3" font-family="sans-serif">trek</text></g><g class="relationship" transform="translate(214.62356601665005 -199.07024032827985) rotate(406.27146580256476)"><path class="outline" fill="#A5ABB6" stroke="none" d="M 25 0.5 L 98.77217128749487 0.5 L 98.77217128749487 -0.5 L 25 -0.5 Z M 118.10810878749487 0.5 L 191.88028007498974 0.5 L 191.88028007498974 3.5 L 198.88028007498974 0 L 191.88028007498974 -3.5 L 191.88028007498974 -0.5 L 118.10810878749487 -0.5 Z"/><text text-anchor="middle" pointer-events="none" font-size="8px" fill="#000000" x="108.44014003749487" y="3" font-family="sans-serif">trek</text></g></g><g class="layer nodes"><g class="node" aria-label="graph-node196" transform="translate(-569.7639493357913,-44.465436370861596)"><circle class="outline" cx="0" cy="0" r="25" fill="#D9C8AE" stroke="#c0a378" stroke-width="2px"/><text class="caption" text-anchor="middle" pointer-events="none" x="0" y="5" font-size="10px" fill="#2A2C34" font-family="sans-serif"> Darjeeling</text></g><g class="node" aria-label="graph-node198" transform="translate(369.3791023905667,-37.28920383735732)"><circle class="outline" cx="0" cy="0" r="25" fill="#F16667" stroke="#eb2728" stroke-width="2px"/><text class="caption" text-anchor="middle" pointer-events="none" x="0" y="5" font-size="10px" fill="#FFFFFF" font-family="sans-serif"> Sandakp…</text></g><g class="node" aria-label="graph-node200" transform="translate(108.86665658880213,-87.45373010215775)"><circle class="outline" cx="0" cy="0" r="25" fill="#8DCC93" stroke="#5db665" stroke-width="2px"/><text class="caption" text-anchor="middle" pointer-events="none" x="0" y="5" font-size="10px" fill="#2A2C34" font-family="sans-serif"> Gurdum</text></g><g class="node" aria-label="graph-node199" transform="translate(-70.75627258523528,-100.64706906717002)"><circle class="outline" cx="0" cy="0" r="25" fill="#8DCC93" stroke="#5db665" stroke-width="2px"/><text class="caption" text-anchor="middle" pointer-events="none" x="0" y="5" font-size="10px" fill="#2A2C34" font-family="sans-serif"> Sirikhola</text></g><g class="node" aria-label="graph-node203" transform="translate(52.78623943585969,-209.95613448684483)"><circle class="outline" cx="0" cy="0" r="25" fill="#8DCC93" stroke="#5db665" stroke-width="2px"/><text class="caption" text-anchor="middle" pointer-events="none" x="0" y="5" font-size="10px" fill="#2A2C34" font-family="sans-serif"> Rammam</text></g><g class="node" aria-label="graph-node204" transform="translate(214.62356601665005,-199.07024032827985)"><circle class="outline" cx="0" cy="0" r="25" fill="#F16667" stroke="#eb2728" stroke-width="2px"/><text class="caption" text-anchor="middle" pointer-events="none" x="0" y="5" font-size="10px" fill="#FFFFFF" font-family="sans-serif"> Sabargr…</text></g><g class="node" aria-label="graph-node201" transform="translate(-364.97767914370974,24.53883982962902)"><circle class="outline" cx="0" cy="0" r="25" fill="#8DCC93" stroke="#5db665" stroke-width="2px"/><text class="caption" text-anchor="middle" pointer-events="none" x="0" y="5" font-size="10px" fill="#2A2C34" font-family="sans-serif"> Tumbling</text></g><g class="node" aria-label="graph-node202" transform="translate(-165.8125248480194,49.09843068618805)"><circle class="outline" cx="0" cy="0" r="25" fill="#8DCC93" stroke="#5db665" stroke-width="2px"/><text class="caption" text-anchor="middle" pointer-events="none" x="0" y="5" font-size="10px" fill="#2A2C34" font-family="sans-serif"> Gairibus</text></g><g class="node" aria-label="graph-node197" transform="translate(21.089525645785308,6.4721171943673514)"><circle class="outline" cx="0" cy="0" r="25" fill="#8DCC93" stroke="#5db665" stroke-width="2px"/><text class="caption" text-anchor="middle" pointer-events="none" x="0" y="5" font-size="10px" fill="#2A2C34" font-family="sans-serif"> BhikeBh…</text></g><g class="node" aria-label="graph-node187" transform="translate(-251.18660081021653,-44.41136658063469)"><circle class="outline" cx="0" cy="0" r="25" fill="#D9C8AE" stroke="#c0a378" stroke-width="2px"/><text class="caption" text-anchor="middle" pointer-events="none" x="0" y="5" font-size="10px" fill="#2A2C34" font-family="sans-serif"> Rimbik</text></g></g></svg>